<svg xmlns="http://www.w3.org/2000/svg" viewBox="0 0 64.51 100.33"><g style="isolation:isolate"><g id="Camada_2" data-name="Camada 2"><path d="M62.51,45.49,39.17,4a4.41,4.41,0,0,0-3.84-2.25l-13.42,0-9.82,0A4.41,4.41,0,0,0,8.25,8.29L30.13,46.34a4.39,4.39,0,0,1,0,4.42l-2.79,4.79L7.94,88.83a4.41,4.41,0,0,0,3.81,6.63H22l13.5,0a4.41,4.41,0,0,0,3.83-2.19l9.06-15.53h0L56.7,63.52l5.79-9.92A8.18,8.18,0,0,0,62.51,45.49Z" style="fill:#edc04e"/><polygon points="4.56 1.84 22.28 2.26 56.36 63.13 48.12 77.42 4.56 1.84" style="fill:#587e86"/><polygon points="4.28 95.01 31.35 49.12 40.29 64.5 22.01 95.84 4.28 95.01" style="fill:#757341"/><polygon points="22.01 95.84 40.29 63.96 48.12 77.42 37.81 95.29 22.01 95.84" style="fill:#f6c966"/><path d="M22.28,2.26H35.09a4.68,4.68,0,0,1,4.07,2.36L61.74,44.27a10.6,10.6,0,0,1-.26,10.91l-5.12,8Z" style="fill:#c14d32"/><polygon points="28 54.54 31.4 48.55 48.37 77.78 28 54.54" style="fill:#6f2b5a;opacity:0.30000000000000004;mix-blend-mode:multiply"/><path d="M23.15,2.43l12.93,0a2.42,2.42,0,0,1,2.09,1.22l23.7,42.16a7.46,7.46,0,0,1,0,7.39l-5.16,8.82L23.15,2.43M21.91,1.7,56.7,63.52l5.79-9.92a8.18,8.18,0,0,0,0-8.11L38.57,2.93a2.32,2.32,0,0,0-2-1.19l-14.64,0Z"/><path d="M5.69,2.38l15.8.05L55.86,63.51,48.37,76.33,40.9,63.47,32,48.19,5.69,2.38M4.43,1.66l27,46.89,8.87,15.28,8.1,14L56.7,63.52,21.91,1.7l-17.48,0Z"/><path d="M40.27,65.28l7.26,12.49-9.92,17-14.38,0L39,67.54l1.31-2.26m0-1.45-1.94,3.35L22,95.46l16,.05L48.37,77.78l-8.1-14Z"/><path d="M2,9.15l24.71,43,4.7-3.56L4.43,1.66l-1.08.81A5.16,5.16,0,0,0,2,9.15Z"/><path d="M22,95.46H4.07L27.32,55.55l4.08-7-4.7,3.56-4.08,7L1.34,95.64A2.25,2.25,0,0,0,3.28,99h14l13.69,0a7.1,7.1,0,0,0,4.25-1.42L38,95.51Z"/><path d="M31.4,50l8,13.83-1.72,3L21.56,94.74H5.34L28,55.91,31.4,50m0-1.45-4.08,7L4.07,95.46H22L38.33,67.18l1.94-3.35L31.4,48.55Z"/><path d="M62.51,45.49,38.57,2.93a2.34,2.34,0,0,0-2-1.19l-14.63,0-17.48,0,27,46.89-4.08,7L4.07,95.46H22l16,.05L48.37,77.78h0L56.7,63.52l5.79-9.92A8.18,8.18,0,0,0,62.51,45.49Zm-.64,7.78-5.8,9.91L47.75,77.43,38.11,93.94a1.7,1.7,0,0,1-1.46.84L22,94.74H7.12a1,1,0,0,1-.87-1.52L28,56,32,49l.21-.36L32,48.23,6.32,3.53a.68.68,0,0,1,.53-1.06l15.07,0,14,0a2.59,2.59,0,0,1,2.26,1.33l23.64,42A7.44,7.44,0,0,1,61.87,53.27Z"/></g></g></svg>