<svg xmlns="http://www.w3.org/2000/svg" viewBox="0 0 595.28 258.38"><path d="M131.69,135.18a12.91,12.91,0,0,0,0-2.76c-1.49-5.63-3.09-11.22-4.55-16.85-.65-2.54-1.06-5.14-1.61-7.9.79-.06,1.26-.14,1.73-.14,8.92,0,17.85-.16,26.76.08a46.41,46.41,0,0,1,11.37,1.65c11,3.12,17.07,11.13,17.38,22.51.2,7.15.07,14.3.09,21.44,0,8.91.11,17.82.09,26.73,0,6.67-1.67,12.84-6.05,18.06a17.62,17.62,0,0,1-14,6.64c-7.71,0-15.42,0-23.13,0h-2c.73-.77,1.08-1.48,1.54-1.56,1.35-.24,1.67-1.22,1.82-2.25a49.82,49.82,0,0,0,.67-6.54q.07-32.84,0-65.65a49.16,49.16,0,0,0-.73-6.71,2.48,2.48,0,0,0-2.06-2.45c-.39-.06-.66-.76-1.23-1.47h19.61c-.58.7-.87,1.41-1.3,1.5-1.54.31-1.86,1.45-2,2.66a61.09,61.09,0,0,0-.57,6.73c0,23.09,0,46.19-.06,69.28,0,1.46.45,1.89,1.85,1.95,5.34.23,9.18-2.29,12.05-6.5a20.69,20.69,0,0,0,3.86-11.57c.11-10.39,0-20.78,0-31.18,0-6.43.12-12.87-.08-19.29a43.89,43.89,0,0,0-1.31-9.26,10.35,10.35,0,0,0-8-7.75,31.2,31.2,0,0,0-6.67-1c-4.67-.17-9.36-.1-14-.11-3.57,0-5.34,1.52-5.2,5.07.15,3.78.87,7.54,1,11.32A14.76,14.76,0,0,1,136,136a5.43,5.43,0,0,1-9.34,1.29c-.86-1.05-1.37-2.31-.63-3.49a3.7,3.7,0,0,1,2.29-1.55c1.42-.22,2.3.78,2.74,2.12A6.16,6.16,0,0,0,131.69,135.18Z"/><path d="M239.41,189.33H191.25L191,189c.4-.41.75-1.08,1.22-1.18a2.23,2.23,0,0,0,1.81-2.25,54.88,54.88,0,0,0,.62-6.38q.07-26.73,0-53.45a50.87,50.87,0,0,0-.64-6.38c-.13-1.07-.51-2-1.85-2.19-.43-.07-.77-.74-1.46-1.47h37c-.73,8.68-5.1,16.51-5.87,25.1l.54.16c.2-.35.38-.71.59-1a2.75,2.75,0,0,1,3.46-1.07,2.81,2.81,0,0,1,1.4,3.48c-1.14,3.42-6,4.56-8.76,2-2.22-2.06-2.63-4.79-2.41-7.58.24-3.18.74-6.33,1.11-9.49.07-.6.09-1.21.1-1.81,0-4.05-1.48-5.58-5.55-5.61H206.5v41.52c2.54-.39,4.92-.66,7.27-1.16.57-.12,1-1,1.49-1.49l1.19-1.25.39.24v11.8c-.71-.64-1.41-1-1.5-1.41a2.23,2.23,0,0,0-2.1-1.79c-2.16-.36-4.33-.61-6.69-.94V185h1.73c4.9,0,9.81-.17,14.7,0a7.83,7.83,0,0,0,7-3.8c2.72-3.94,3.55-8.46,4-13.1,0-.43,0-.88,0-1.32.16-3.12,2-4.46,5.3-3.67C236.7,171.76,237.37,180.49,239.41,189.33Z"/><path d="M334.33,115.6h36.48c-.39,2.06-.65,4-1.15,5.87-1.37,5.14-2.89,10.25-4.26,15.4a28.84,28.84,0,0,0-.52,4.07l.52.09c.1-.22.21-.45.32-.67.83-1.63,2.41-2.25,3.81-1.5a2.93,2.93,0,0,1,1,4,5.59,5.59,0,0,1-8.38,1.56,7.49,7.49,0,0,1-2.54-6.21c.2-3.55.76-7.08,1.07-10.64a17.58,17.58,0,0,0-.11-4.41,3.73,3.73,0,0,0-3.78-3.28c-2.41-.11-4.83,0-7.36,0v41.48c2.55-.4,5-.73,7.47-1.23.49-.11.86-.86,1.27-1.32s.82-.92,1.23-1.39l.39.25v11.85c-.72-.7-1.15-1.13-1.6-1.55s-1-1.38-1.69-1.52c-2.28-.5-4.62-.76-7.08-1.14v18.94c3.43,0,6.79.15,10.13-.05,2.23-.13,3.77-1.71,5-3.48a25.77,25.77,0,0,0,3.88-11.1,21.34,21.34,0,0,0,.39-4.27c-.29-4.13,3.08-5.51,6.85-4.57-7.93,10.45-4.64,19.69,3.29,28.62H333.68c.71-.77,1.05-1.5,1.53-1.61a2.25,2.25,0,0,0,1.8-2.27,62.69,62.69,0,0,0,.65-7.21q.07-25.83,0-51.64a57.65,57.65,0,0,0-.61-7.06c-.14-1.12-.41-2.28-2-2.48-.39-.05-.71-.75-1.07-1.16Z"/><path d="M408.51,141l.35-.7a2.81,2.81,0,0,1,3.71-1.48,2.87,2.87,0,0,1,1.2,4,5.6,5.6,0,0,1-9.89-.12,11,11,0,0,1-.82-6.92c.37-2.78.84-5.54,1.26-8.31a14.53,14.53,0,0,0,.13-1.48c.11-3.47-1.13-5.37-3.92-6-3.64-.8-6.5.34-7.58,3.56-2.5,7.53-2.12,13.77,3.83,19,3.14,2.77,6.42,5.36,9.57,8.11,4.84,4.21,8.59,9.12,9.65,15.68a24.93,24.93,0,0,1-.35,10.14c-1.86,7.31-7.6,12.09-15.68,13-4.16.49-8.23.35-12.07-1.64-8.78-4.55-10.08-14.22-8.08-20.31,1.45-4.37,5.77-6.59,9.66-5a5.15,5.15,0,0,1,3.64,4.69c-3.54,1.06-4.16,4-4.2,6.94a15.83,15.83,0,0,0,1.22,6.38c1.84,4.24,6.72,5,10.12,1.85a14.35,14.35,0,0,0,4.25-9.08c.79-6.69-1-12.55-6-17.22-2.12-2-4.5-3.7-6.74-5.56s-4.71-3.66-6.78-5.77c-5.14-5.22-6-11.59-4.13-18.36,1.82-6.47,6.62-9.93,12.93-11.4s12.69-.93,19,.29c1.31.25,1,1.1.85,1.86-1.18,4.69-2.43,9.35-3.63,14-.67,2.6-1.32,5.21-1.91,7.83a9.34,9.34,0,0,0,0,2Z"/><path d="M428.71,141.05a17.57,17.57,0,0,0-.24-3.26c-1.46-5.51-3.06-11-4.53-16.51-.48-1.79-.73-3.63-1.12-5.63h46.63a34.21,34.21,0,0,1-.6,4c-1.5,5.62-3.11,11.21-4.59,16.84a38,38,0,0,0-.65,4.55l.51.08c.08-.1.21-.2.24-.32.35-1.31,1.18-2.27,2.53-2.16a3.81,3.81,0,0,1,2.42,1.32c.84,1.06.4,2.3-.33,3.36a5.48,5.48,0,0,1-9.43-.61,10.73,10.73,0,0,1-1.15-5c.05-3,.58-5.89.85-8.85a32.87,32.87,0,0,0,.22-4.43c-.12-3-1.62-4.41-4.56-4.53-.93,0-1.86,0-3,0v1.84c0,18.75,0,37.5,0,56.25a55.37,55.37,0,0,0,.71,7.37c.16,1.11.52,2.24,2,2.51.42.07.74.73,1.44,1.48H436.26c.72-.74,1.06-1.41,1.52-1.51a2.25,2.25,0,0,0,1.82-2.24,50.18,50.18,0,0,0,.61-6.22q.07-29.12,0-58.23c0-.32,0-.65-.06-1-4.43-1.41-7.53.7-7.37,5.21.12,3.17.86,6.33,1,9.5a25.37,25.37,0,0,1-.7,7.28,4.88,4.88,0,0,1-4.71,3.54,5.38,5.38,0,0,1-5.22-2.83,2.73,2.73,0,1,1,4.8-2.48,6.28,6.28,0,0,1,.25.73Z"/><path d="M267.86,189.34H248c.46-.7.68-1.44,1-1.51,1.58-.33,1.68-1.55,1.58-2.67-.32-3.49-.66-7-1.25-10.45q-3.5-20.46-7.17-40.9c-.77-4.32-1.7-8.62-2.73-12.88-.4-1.63-.81-3.5-3-3.89-.37-.07-.64-.72-1.2-1.39h19.48c-.57.71-.84,1.41-1.26,1.51a1.6,1.6,0,0,0-1.35,1.94c.3,3.38.51,6.79,1.08,10.13,2.34,13.75,4.8,27.48,7.22,41.22,0,.16.08.31.2.78a9.25,9.25,0,0,0,.46-1.14q5.18-22.4,10.32-44.79a36.76,36.76,0,0,0,.69-5.55c.09-1.12.18-2.37-1.49-2.66-.3-.06-.47-.81-.83-1.47H284.9c-.58.66-.92,1.4-1.34,1.46-1.85.25-2.44,1.68-2.88,3-1.06,3.34-2.05,6.72-2.85,10.14Q272,155.13,266.28,180a28.82,28.82,0,0,0-.57,4.74c-.08,1.27-.36,2.7,1.51,3.15C267.5,188,267.61,188.74,267.86,189.34Z"/><path d="M306.48,161.23c2-.21,3.92-.34,5.76-.62,1.4-.21,2.88-.4,3.21-2.27.07-.35.79-.58,1.42-1v12.14c-.71-.63-1.14-1-1.56-1.39-.64-.58-1.19-1.53-1.91-1.7-2.23-.51-4.52-.72-7-1.09,0,1.14,0,1.95,0,2.75.2,5.6.37,11.19.64,16.78.07,1.39.45,2.71,2.2,3,.37.08.62.74,1.14,1.42H290.74c.66-.72,1-1.41,1.42-1.49,1.48-.28,1.81-1.37,1.95-2.52a61.36,61.36,0,0,0,.58-6.89q.07-25.89,0-51.79a59.08,59.08,0,0,0-.57-6.89c-.15-1.18-.41-2.4-2-2.61-.39,0-.7-.77-1.3-1.48h37c-.38,2-.62,3.91-1.11,5.74-1.38,5.19-2.91,10.36-4.28,15.56a30.06,30.06,0,0,0-.52,4.33,4.78,4.78,0,0,0,.61-.34c.5-1.42,1.37-2.56,3-2.28a3.5,3.5,0,0,1,2.25,1.6c.73,1.42,0,2.77-1,3.87a5.67,5.67,0,0,1-9.11-1.79,13.13,13.13,0,0,1-.83-7.43c.27-2.45.67-4.89,1-7.34a14.64,14.64,0,0,0,.15-1.47c.16-4.69-1.35-6.26-6.07-6.26h-5.36Z"/><path d="M191.22,80.7q-4.91,3.47-9.64,7.26a.45.45,0,0,1,.09-.72c.47-.37-1-2.25-1.09-2.41L168.86,70c-.12-.16-1.62-2-2.15-1.57s-.77,0-.77,0c1.79-1.44,3.61-2.85,5.44-4.22,0,0,.37.34-.17.75s1,2.52,1,2.52l12.53,16.46,1.61-1.22c2.25-1.79.29-5.49-.34-6.37-.85-1.19.82-1.9.82-1.89S187.37,77.54,191.22,80.7Z" style="fill:#19393b"/><path d="M184.24,59.08c-.73.16-1.85.48-2.41-.35a1.92,1.92,0,0,1,.79-2.54c3-2,5.52,3.56,2.37,5.35C185.6,60.26,185.11,59,184.24,59.08Z" style="fill:#19393b"/><path d="M212.68,67.47q-5.2,2.77-10.28,5.87a.45.45,0,0,1,.18-.7c.5-.3-.69-2.35-.79-2.52L192,54c-.1-.17-1.36-2.18-1.92-1.84s-.75-.13-.75-.13q5.58-3.4,11.31-6.46c.76,1.44.92,5.75,1.55,7.12a.47.47,0,0,0,.46.35l0-.05a.89.89,0,0,1,.46-1.16.88.88,0,0,1,1.18.27,1.42,1.42,0,0,1-.42,1.55,2.3,2.3,0,0,1-1.88.69c-3.09-.46-1.84-7-5.32-5.17l-2,1.15q3.45,6,6.91,12c.33-.2,2.53-1.52,2.29-1.95s.27-.69.27-.69l1.62,2.91s-.46.34-.71-.1-2.51.73-2.84.93l3.74,6.47,1.72-1c2.4-1.46.92-5.38.41-6.32-.7-1.29,1-1.77,1-1.76S209.28,63.84,212.68,67.47Z" style="fill:#19393b"/><path d="M219.86,41.7c.21,2.93.44,5.84.72,8.75,1.7,1.79,3.37,3.59,5,5.41.13.13,1.89,2,2.42,1.76a.72.72,0,0,1,.83.2c-1.83.76-3.66,1.56-5.47,2.38a.32.32,0,0,1,.09-.59c.54-.25-1.23-2.2-1.29-2.24q-1.65-1.75-3.33-3.5c.17,1.6.35,3.19.54,4.79,0,.17.39,2.65.93,2.4s.54.3.54.3c-1.41.66-2.82,1.34-4.21,2a.65.65,0,0,1,.37-.74c.55-.27.22-2.89.23-3-.4-2.82-.75-5.66-1.08-8.5q-2.67-2.7-5.4-5.34c-.07,0-2.06-1.85-2.65-1.57a.74.74,0,0,1-.91-.1c2-1,4-1.94,6-2.87,0,0,.47.34-.12.61s1.21,2.13,1.3,2.23q1.8,1.78,3.58,3.58c-.17-1.66-.32-3.32-.46-5,0-.07-.24-2.7-.86-2.43s-.53-.31-.53-.31c1.57-.7,3.15-1.37,4.73-2a.72.72,0,0,1-.51.75C219.73,39,219.84,41.56,219.86,41.7Z" style="fill:#19393b"/><path d="M243.41,37.77a1.56,1.56,0,0,1-.69,1.43,2.06,2.06,0,0,1-1.92.3c-2.88-1.07-.51-7.24-4.17-6.11l-.87.28q2.73,8.11,5.45,16.22c0,.13.89,2.42,1.44,2.23a.45.45,0,0,1,.64.32c-1.88.62-3.74,1.26-5.6,1.94a.44.44,0,0,1,.3-.64c.55-.2-.21-2.44-.28-2.63Q234.83,43,232,35l-.82.29c-3.59,1.39,2.07,4.78.49,7.39a2.1,2.1,0,0,1-1.7,1,1.55,1.55,0,0,1-1.43-.7.86.86,0,0,1,.55-1.07.88.88,0,0,1,1.15.42s0,0,0,.08a.46.46,0,0,0,.07-.6c-.63-1.37-3.75-4.32-4.35-5.84q7.53-2.91,15.2-5.26c.46,1.57-.15,5.81.2,7.27a.49.49,0,0,0,.39.44l0-.06a.88.88,0,0,1,.64-1A.85.85,0,0,1,243.41,37.77Z" style="fill:#19393b"/><path d="M266.8,46.23q-2.87.59-5.72,1.24s-.5-.4,0-.52-1.5-2.16-1.64-2.26c-2-1.89-3-2.72-4.12-2.43.27,1.08.55,2.16.82,3.24,0,.13.7,2.47,1.26,2.33a.44.44,0,0,1,.61.36q-2.87.7-5.71,1.5a.45.45,0,0,1,.35-.62c.56-.15,0-2.44-.08-2.64l-4-14.74c-.05-.19-.71-2.46-1.33-2.3s-.67-.33-.67-.33q3.46-1,6.93-1.81c4.82-1.18,9.39,1.37,10.19,5.49a7.91,7.91,0,0,1-3.84,8.13c1.08,1,2.15,2,3.2,3,0,0,2.24,2.15,2.83,2A1,1,0,0,1,266.8,46.23ZM260,33.49a6.26,6.26,0,0,0-7.67-4.67,1.38,1.38,0,0,0-.34.12l3.09,12.19.33-.08A6.43,6.43,0,0,0,260,33.49Z" style="fill:#19393b"/><path d="M286.78,43.27c-1.94.19-3.87.4-5.8.65a.36.36,0,0,1,.33-.55c.57-.07-.12-2.44-.18-2.56-.21-.67-.43-1.34-.65-2-4.26-.72-5.09,1.8-5.2,2.92,0,.51-.12,2.52.38,2.44s.46.44.46.44c-1.51.22-3,.47-4.52.74a.59.59,0,0,1,.51-.6c.6-.11.84-2.61.86-2.75q.63-7.85,1.55-15.7c0-.14.29-2.64-.37-2.55s-.46-.43-.46-.43q3.27-.49,6.55-.88s.25.48-.37.55.14,2.5.15,2.57q1.88,5.55,3.62,11.13c.82-.66-.2-1.52-.2-1.52a1.85,1.85,0,0,1,.83,3.6l.51,1.63c0,.06.77,2.5,1.38,2.44A.55.55,0,0,1,286.78,43.27Zm-6.83-6q-1.56-4.66-3.19-9.3-.64,5.22-1.17,10.44A6.9,6.9,0,0,1,280,37.26Z" style="fill:#19393b"/><path d="M303.43,26.09l.15,11.07c0,2.87-2.59,4.93-5.75,5.33-3.2,0-6-2-6.18-4.82-.27-3.68-.53-7.37-.8-11-.21-2.82,2.5-5.31,6.11-5.52h0C300.53,21.08,303.41,23.29,303.43,26.09Zm-3.9.08A3.94,3.94,0,0,0,297,22.73a3.93,3.93,0,0,0-2.24,3.65l.59,11.06a4.06,4.06,0,0,0,2.42,3.42,4.05,4.05,0,0,0,2.12-3.62Q299.71,31.7,299.53,26.17Z" style="fill:#19393b"/><path d="M323.87,43.06q-2.91-.26-5.82-.42s-.36-.52.17-.49-.82-2.49-.93-2.62c-1.37-2.38-2.07-3.44-3.25-3.49l-.12,3.34c0,.13,0,2.56.55,2.59a.44.44,0,0,1,.48.52c-1.95-.08-3.91-.14-5.86-.16a.44.44,0,0,1,.51-.5c.57,0,.65-2.35.65-2.55q.15-7.65.29-15.28c0-.2,0-2.57-.62-2.58s-.55-.51-.55-.51q3.56,0,7.11.21c4.93.22,8.59,3.94,8.2,8.12A7.92,7.92,0,0,1,318.73,36c.76,1.25,1.49,2.52,2.22,3.78,0,0,1.54,2.69,2.14,2.74A1,1,0,0,1,323.87,43.06Zm-3-14.14a6.23,6.23,0,0,0-6-6.63,1.09,1.09,0,0,0-.36,0q-.23,6.29-.46,12.57h.33A6.42,6.42,0,0,0,320.91,28.92Z" style="fill:#19393b"/><path d="M345.4,29.57q-1,5.45-2,10.89c-.52,2.82-3.58,4.6-6.86,4.1-2.44-.36-4.89-.69-7.34-1,0,0,0-.5.55-.44s.9-2.34.91-2.48q.9-7.58,1.81-15.16c0-.14.27-2.56-.36-2.63s-.49-.56-.49-.56q4.06.45,8.12,1.07C343.41,23.94,345.92,26.75,345.4,29.57Zm-3.82-.66c.36-2.17-1.41-4.29-3.95-4.65a4.77,4.77,0,0,0-1,0q-1.29,9.36-2.57,18.71a4.43,4.43,0,0,0,.87.22,4.22,4.22,0,0,0,4.85-3.31Q340.69,34.38,341.58,28.91Z" style="fill:#19393b"/><path d="M353.31,47.82c-1.91-.46-3.83-.88-5.75-1.28a.44.44,0,0,1,.6-.39c.56.12,1.11-2.25,1.13-2.38q1.6-7.47,3.2-14.94c0-.13.5-2.52-.12-2.66s-.44-.6-.44-.6c2.13.44,4.25.92,6.36,1.42,0,0,0,.51-.66.36s-1.28,2.37-1.28,2.37l-3.46,14.85s-.55,2.51.05,2.65A.43.43,0,0,1,353.31,47.82Z" style="fill:#19393b"/><path d="M371.45,53.06q-2.28-.78-4.57-1.49-.36-8-1.12-16.08-1.63,5.76-3.28,11.52s-.68,2.51-.09,2.68a.47.47,0,0,1,.35.62q-2.22-.64-4.44-1.23a.45.45,0,0,1,.62-.36c.55.15,1.21-2.12,1.26-2.31l4-14.75c.05-.19.63-2.48,0-2.65s-.41-.63-.41-.63c1.71.46,3.41.93,5.1,1.43.4,4.08.72,8.17,1,12.24q1.26-4,2.51-8c.06-.19.74-2.46.13-2.65s-.39-.64-.39-.64q3.13,1,6.23,2s-.08.5-.69.29-1.44,2.05-1.49,2.21l-4.85,14.49c0,.13-.74,2.46-.19,2.64A.44.44,0,0,1,371.45,53.06Z" style="fill:#19393b"/><path d="M390.46,60.64q-2.7-1.24-5.43-2.4s0-.53.56-.3,1.13-2.17,1.15-2.31c.14-.69.29-1.37.43-2.06-3.37-2.8-5.37-1-6-.12-.29.42-1.38,2.11-.91,2.29s.19.62.19.62c-1.44-.57-2.88-1.12-4.33-1.66a.6.6,0,0,1,.75-.25c.57.21,2.05-1.83,2.13-1.94q4.51-6.46,9.29-12.78c.09-.11,1.59-2.13,1-2.39s-.19-.61-.19-.61c2.08.83,4.14,1.69,6.2,2.58,0,0,0,.54-.6.29s-1.14,2.23-1.17,2.29q-1.15,5.74-2.44,11.46c1.06-.15.59-1.42.59-1.42a1.85,1.85,0,0,1-1.08,3.54c-.12.55-.25,1.1-.37,1.66,0,.06-.59,2.55,0,2.81A.55.55,0,0,1,390.46,60.64Zm-3-8.68c.67-3.21,1.3-6.42,1.9-9.65q-3.19,4.19-6.3,8.43A7.12,7.12,0,0,1,387.48,52Z" style="fill:#19393b"/><path d="M400.41,65.54c-1.78-.94-3.56-1.85-5.36-2.73,0,0,.15-.48.68-.22s1.64-1.9,1.7-2q3.4-6.85,6.8-13.69c.06-.12,1.11-2.32.52-2.6s-.28-.7-.28-.7c2,1,4,2,5.92,3,0,0-.16.48-.73.18s-1.85,2-1.85,2l-7,13.53s-1.15,2.3-.6,2.58S400.41,65.54,400.41,65.54Z" style="fill:#19393b"/><path d="M418.12,76.08c-1.68-1.12-3.38-2.22-5.09-3.28,0,0-.08-.64.39-.35s.44-2.6.41-2.77c-.11-2.77-.24-4.06-1.29-4.68-.57,1-1.13,1.91-1.7,2.87-.07.11-1.25,2.24-.74,2.55a.44.44,0,0,1,.19.69c-1.73-1-3.48-2-5.23-3a.44.44,0,0,1,.69-.18c.52.29,1.72-1.75,1.82-1.93l7.55-13.28c.1-.17,1.23-2.25.67-2.57s-.25-.72-.25-.72c2.13,1.2,4.24,2.43,6.34,3.71,4.37,2.64,5.93,7.75,3.58,11.23a8,8,0,0,1-8.62,2.94c.08,1.48.15,3,.2,4.43,0,0,.12,3.14.64,3.49A1,1,0,0,1,418.12,76.08Zm4.06-13.92a6.34,6.34,0,0,0-2.3-8.82,1,1,0,0,0-.33-.16L413.14,64l.29.18A6.52,6.52,0,0,0,422.18,62.16Z" style="fill:#19393b"/><path d="M432.44,86.55q-4.79-3.83-9.73-7.32s.22-.46.71-.11,1.9-1.55,2-1.72L434.32,65c.12-.17,1.46-2.12.92-2.5s-.18-.74-.18-.74q5.35,3.78,10.54,7.92c-1,1.27-5,3.1-6,4.22a.46.46,0,0,0-.14.57l0-.06a.91.91,0,0,1,1.26,0,.89.89,0,0,1,.23,1.2,1.4,1.4,0,0,1-1.61.21,2.24,2.24,0,0,1-1.4-1.47c-.83-3,5.75-4.46,2.62-7l-1.89-1.42-7.16,9.63c.31.23,2.44,1.76,2.77,1.34s.73,0,.73,0l-2,2.64s-.5-.3-.19-.7-1.71-2.05-2-2.28c-1.13,1.52-2.25,3-3.38,4.55l1.63,1.23c2.37,1.68,5.39-1.22,6.06-2.06.91-1.16,2.07.28,2.07.28S434.39,82,432.44,86.55Z" style="fill:#19393b"/><path d="M251.14,92.57h-4.78a.37.37,0,0,1,.41-.43c.47,0,.49-2.07.49-2.24V79.76L243,92.57l-4.43-13.16V89.9s0,2.24.52,2.24a.39.39,0,0,1,.41.43h-3.72a.37.37,0,0,1,.4-.43c.47,0,.5-2.13.5-2.24V76.56c0-.12,0-2.24-.5-2.24a.38.38,0,0,1-.4-.44h3.87l3.84,11.39,3.81-11.39h3.88a.38.38,0,0,1-.41.44c-.47,0-.52,2.12-.52,2.24V89.9c0,.11,0,2.24.52,2.24A.37.37,0,0,1,251.14,92.57Z" style="fill:#19393b"/><path d="M267.41,78.4v9.66c0,2.51-2.16,4.28-4.75,4.51a4.71,4.71,0,0,1-4.74-4.51V78.4a4.69,4.69,0,0,1,4.77-4.52h0A4.72,4.72,0,0,1,267.41,78.4Zm-2.94,0a3.53,3.53,0,0,0-1.81-3.09,3.54,3.54,0,0,0-1.8,3.09v9.66a3.54,3.54,0,0,0,1.8,3.09,3.53,3.53,0,0,0,1.81-3.09Z" style="fill:#19393b"/><path d="M285.22,92.57h-3.87l-4.42-13.16V89.87s0,2.27.52,2.27a.39.39,0,0,1,.41.43h-3.73a.37.37,0,0,1,.41-.43c.46,0,.49-2.07.49-2.24V76.56c0-.17,0-2.24-.49-2.24a.38.38,0,0,1-.41-.44H278l3.35,10V76.56c0-.17,0-2.24-.49-2.24a.38.38,0,0,1-.41-.44h4.77a.38.38,0,0,1-.4.44c-.47,0-.53,2.1-.53,2.24V89.9c0,.11.06,2.24.53,2.24A.37.37,0,0,1,285.22,92.57Z" style="fill:#19393b"/><path d="M302.83,78.4v9.66a4.69,4.69,0,0,1-4.89,4.51h-6a.37.37,0,0,1,.41-.43c.46,0,.49-2.13.49-2.24V76.56c0-.12,0-2.24-.49-2.24a.38.38,0,0,1-.41-.44h6A4.7,4.7,0,0,1,302.83,78.4Zm-2.91,0a3.47,3.47,0,0,0-3.43-3.5,2.86,2.86,0,0,0-.73.09V91.47a2.87,2.87,0,0,0,.73.08,3.47,3.47,0,0,0,3.43-3.49Z" style="fill:#19393b"/><path d="M319,92.57h-9.43a.37.37,0,0,1,.41-.43c.46,0,.49-2.07.49-2.24V76.56c0-.17,0-2.24-.49-2.24a.38.38,0,0,1-.41-.44h9.23c0,1.43-1.37,4.81-1.46,6.12a.43.43,0,0,0,.18.46V80.4a.71.71,0,0,1,.7-.69.69.69,0,0,1,.66.69,1.14,1.14,0,0,1-.81,1,1.38,1.38,0,0,1-1.46-.26C314.77,79.5,317.86,75,315,75h-1.66V85.44c.29,0,2.24-.06,2.24-.52a.37.37,0,0,1,.44-.38v2.91a.37.37,0,0,1-.44-.38c0-.46-1.95-.52-2.24-.52v5h1.57c2.25-.09,2.68-3.73,2.68-4.66,0-1.28,1.34-.93,1.34-.93S317.94,88.38,319,92.57Z" style="fill:#19393b"/><path d="M347.72,78.4v9.66a4.69,4.69,0,0,1-4.89,4.51h-6a.38.38,0,0,1,.41-.43c.47,0,.5-2.13.5-2.24V76.56c0-.12,0-2.24-.5-2.24a.38.38,0,0,1-.41-.44h6A4.7,4.7,0,0,1,347.72,78.4Zm-2.91,0a3.47,3.47,0,0,0-3.43-3.5,2.81,2.81,0,0,0-.73.09V91.47a2.82,2.82,0,0,0,.73.08,3.47,3.47,0,0,0,3.43-3.49Z" style="fill:#19393b"/><path d="M365.28,74.32c-.5,0-.53,2.27-.53,2.27V88.06a4.75,4.75,0,0,1-9.49,0V76.56c0-.12,0-2.24-.49-2.24a.38.38,0,0,1-.41-.44h4.77a.38.38,0,0,1-.4.44c-.5,0-.53,2.27-.53,2.27V88.06A3.53,3.53,0,0,0,360,91.15a3.48,3.48,0,0,0,1.8-3.09V76.56c0-.12,0-2.24-.52-2.24a.37.37,0,0,1-.38-.44h4.77A.4.4,0,0,1,365.28,74.32Z" style="fill:#19393b"/><path d="M225.61,233.93h-3.85l-5.3-16.13v13.45s0,2.24.53,2.24a.4.4,0,0,1,.41.44h-3.73a.38.38,0,0,1,.41-.44c.46,0,.49-2.07.49-2.24V214.77c0-.17,0-2.24-.49-2.24a.38.38,0,0,1-.41-.44h3.87L221.76,225V214.77c0-.17,0-2.24-.52-2.24a.38.38,0,0,1-.41-.44h4.78a.38.38,0,0,1-.41.44c-.47,0-.5,2.07-.5,2.24v16.54c0,.35.06,2.18.5,2.18A.38.38,0,0,1,225.61,233.93Z" style="fill:#19393b"/><path d="M244.38,232.36h-4.74s-.15-.44.32-.44.14-2.13.11-2.24l-.32-1.81c-3.26-1.1-4.19.93-4.42,1.89-.09.44-.41,2.16,0,2.16s.32.44.32.44h-3.73a.51.51,0,0,1,.5-.44c.49,0,1-2.13,1-2.24l3.06-13.34c0-.11.5-2.24,0-2.24s-.29-.44-.29-.44h4.86s.15.44-.32.44-.11,2.18-.11,2.24l1.77,10c.7-.5,0-1.34,0-1.34a1.62,1.62,0,0,1,.35,3.2l.26,1.46c0,.06.41,2.24.91,2.24A.46.46,0,0,1,244.38,232.36Zm-4.89-5.89L238,218.06l-2,8.88A5.16,5.16,0,0,1,239.49,226.47Z" style="fill:#19393b"/><path d="M262.05,232.36h-3.87l-4.43-13.16v10.45s0,2.27.53,2.27a.4.4,0,0,1,.41.44H251a.38.38,0,0,1,.41-.44c.46,0,.49-2.07.49-2.24V216.34c0-.17,0-2.24-.49-2.24a.38.38,0,0,1-.41-.44h3.87l3.35,10v-7.31c0-.17,0-2.24-.49-2.24a.38.38,0,0,1-.41-.44h4.77a.38.38,0,0,1-.41.44c-.46,0-.52,2.1-.52,2.24v13.34c0,.11.06,2.24.52,2.24A.38.38,0,0,1,262.05,232.36Z" style="fill:#19393b"/><path d="M280.3,220.19a1.32,1.32,0,0,1-.81,1,1.41,1.41,0,0,1-1.46-.27c-1.8-1.66,1.28-6.14-1.54-6.2h-.67v14.94c0,.11.06,2.24.52,2.24a.38.38,0,0,1,.41.44H272a.38.38,0,0,1,.41-.44c.46,0,.49-2.07.49-2.24V214.74h-.64c-2.82.06.23,4.54-1.54,6.2a1.41,1.41,0,0,1-1.46.27,1.3,1.3,0,0,1-.81-1,.68.68,0,0,1,.67-.7.71.71,0,0,1,.69.7s0,0,0,.05a.4.4,0,0,0,.2-.46c-.09-1.31-1.46-4.69-1.46-6.12h11.71c0,1.43-1.37,4.81-1.46,6.12a.43.43,0,0,0,.18.46v-.05a.71.71,0,0,1,.69-.7A.68.68,0,0,1,280.3,220.19Z" style="fill:#19393b"/><path d="M296.08,232.36h-9.43a.38.38,0,0,1,.41-.44c.46,0,.49-2.07.49-2.24V216.34c0-.17,0-2.24-.49-2.24a.38.38,0,0,1-.41-.44h9.23c0,1.43-1.37,4.81-1.46,6.12a.43.43,0,0,0,.18.46v-.05a.68.68,0,1,1,1.36,0,1.18,1.18,0,0,1-.81,1,1.4,1.4,0,0,1-1.46-.27c-1.8-1.66,1.29-6.14-1.54-6.2h-1.66v10.48c.29,0,2.24-.06,2.24-.52a.37.37,0,0,1,.44-.38v2.91a.37.37,0,0,1-.44-.38c0-.46-2-.52-2.24-.52v4.95h1.57c2.25-.09,2.68-3.73,2.68-4.66,0-1.28,1.34-.93,1.34-.93S295.06,228.16,296.08,232.36Z" style="fill:#19393b"/><path d="M312.06,227.64c0,2.53-1.48,4.8-5.15,4.8a4.16,4.16,0,0,1-4.25-4.31c0-3.55,3.55-3.11,3.55-1.33-1.48,0-1.63,4.27.7,4.27,1.16,0,2.21-1.57,2.21-3.43,0-5.27-6.2-4.86-6.2-9.7,0-3,2-4.22,4.08-4.54a12.76,12.76,0,0,1,4.42.26c0,1.43-1.37,4.81-1.45,6.12a.4.4,0,0,0,.2.46s0,0,0-.05a.71.71,0,0,1,.7-.7.68.68,0,0,1,.67.7,1.15,1.15,0,0,1-.81,1,1.41,1.41,0,0,1-1.46-.27c-1.81-1.66,1.66-6.2-1.72-6.2-1.34,0-1.69,1.31-1.69,3.2C305.83,221.47,312.06,222.11,312.06,227.64Z" style="fill:#19393b"/><path d="M340.79,227.26a12.06,12.06,0,0,0,0,6.67H330.63c0-5.74,7.84-9.67,7.84-16.13,0-2.56-1-4.51-3.24-4.51-3.37,0-3.31,3.58-2,4.77.52.47,1.77,1.14,2.62.09,1.28,1.75-.38,2.65-1.34,2.73a4,4,0,0,1-3.93-5.44,5.13,5.13,0,0,1,4.95-3.35c5,0,5.76,3.53,5.76,5.71,0,6.17-6.75,9.72-8.68,13.94h4.81c1.77,0,2.07-2.62,2.07-3.55C339.49,226.91,340.79,227.26,340.79,227.26Z" style="fill:#19393b"/><path d="M358.61,223c0,6-2.42,10.92-5.42,10.92S347.78,229,347.78,223s2.42-10.92,5.41-10.92S358.61,217,358.61,223Zm-2.94,0c0-5.15-1.11-9.35-2.48-9.35s-2.47,4.2-2.47,9.35,1.11,9.35,2.47,9.35S355.67,228.16,355.67,223Z" style="fill:#19393b"/><path d="M376.19,227.26s-1,2.48,0,6.67H366c0-5.74,7.83-9.67,7.83-16.13,0-2.56-1-4.51-3.23-4.51-3.38,0-3.32,3.58-2,4.77.53.47,1.78,1.14,2.62.09,1.28,1.75-.37,2.65-1.34,2.73a4,4,0,0,1-3.93-5.44,5.13,5.13,0,0,1,4.95-3.35c5,0,5.77,3.53,5.77,5.71,0,6.17-6.76,9.72-8.68,13.94h4.81c1.77,0,2.06-2.62,2.06-3.55C374.88,226.91,376.19,227.26,376.19,227.26Z" style="fill:#19393b"/><path d="M394.36,227.26s-1,2.48,0,6.67H384.2c0-5.74,7.83-9.67,7.83-16.13,0-2.56-1-4.51-3.23-4.51-3.38,0-3.32,3.58-2,4.77.52.47,1.77,1.14,2.62.09,1.28,1.75-.38,2.65-1.34,2.73a4,4,0,0,1-3.93-5.44,5.13,5.13,0,0,1,4.95-3.35c5,0,5.76,3.53,5.76,5.71,0,6.17-6.75,9.72-8.67,13.94H391c1.78,0,2.07-2.62,2.07-3.55C393.05,226.91,394.36,227.26,394.36,227.26Z" style="fill:#19393b"/></svg>
