<svg xmlns="http://www.w3.org/2000/svg" viewBox="0 0 595.28 192.87"><g style="isolation:isolate"><rect x="0.64" width="595.03" height="192.87"/><path d="M157.31,58.5a12.8,12.8,0,0,0,0-2.76c-1.48-5.63-3.08-11.22-4.54-16.85-.66-2.54-1.06-5.14-1.61-7.9.78-.06,1.25-.14,1.72-.14,8.93,0,17.85-.16,26.77.08A46.41,46.41,0,0,1,191,32.58c10.95,3.12,17.07,11.13,17.38,22.51.2,7.15.07,14.3.09,21.44,0,8.91.1,17.82.09,26.72,0,6.68-1.67,12.85-6.05,18.07a17.63,17.63,0,0,1-14,6.64c-7.71,0-15.42,0-23.13,0h-2c.73-.76,1.08-1.47,1.54-1.55,1.35-.24,1.67-1.22,1.81-2.25a46.62,46.62,0,0,0,.67-6.54q.08-32.84,0-65.66a49,49,0,0,0-.73-6.7,2.48,2.48,0,0,0-2.06-2.45c-.39-.07-.66-.76-1.24-1.47h19.61c-.57.7-.87,1.41-1.29,1.5-1.54.31-1.86,1.45-2,2.66a56.57,56.57,0,0,0-.57,6.73c0,23.09,0,46.19-.06,69.28,0,1.45.45,1.89,1.85,1.95,5.34.23,9.17-2.29,12-6.5a20.77,20.77,0,0,0,3.86-11.57c.11-10.39,0-20.79,0-31.18,0-6.43.12-12.87-.08-19.3a44.55,44.55,0,0,0-1.31-9.25,10.37,10.37,0,0,0-8-7.75,32,32,0,0,0-6.67-1c-4.68-.16-9.36-.09-14-.1-3.57,0-5.35,1.52-5.21,5.07.15,3.78.88,7.54,1,11.32a14.93,14.93,0,0,1-.87,6.1,5.43,5.43,0,0,1-9.34,1.29c-.86-1-1.37-2.31-.63-3.5A3.7,3.7,0,0,1,154,55.58c1.43-.22,2.31.78,2.75,2.12A5.23,5.23,0,0,0,157.31,58.5Z" style="fill:#faf2c8"/><path d="M265,112.65H216.87l-.26-.37c.41-.41.76-1.08,1.23-1.18a2.23,2.23,0,0,0,1.81-2.25,54.88,54.88,0,0,0,.62-6.38q.06-26.73,0-53.45a49,49,0,0,0-.63-6.38c-.14-1.07-.51-2-1.86-2.19-.42-.07-.76-.74-1.45-1.47h37c-.73,8.67-5.1,16.51-5.87,25.1l.54.16c.2-.35.37-.71.59-1a2.74,2.74,0,0,1,3.46-1.07,2.83,2.83,0,0,1,1.4,3.48c-1.14,3.42-6,4.56-8.76,2-2.22-2.06-2.63-4.79-2.42-7.59.25-3.17.75-6.32,1.12-9.48.07-.6.09-1.21.1-1.81,0-4-1.48-5.58-5.55-5.61h-5.84V84.66c2.53-.39,4.92-.66,7.26-1.16.58-.12,1-1,1.5-1.49s.79-.84,1.19-1.25l.39.24V92.79c-.71-.63-1.41-1-1.5-1.4a2.24,2.24,0,0,0-2.1-1.79c-2.16-.36-4.33-.62-6.69-.94v19.67h1.73c4.9,0,9.8-.18,14.7,0a7.83,7.83,0,0,0,7-3.8c2.72-3.94,3.55-8.46,4-13.1,0-.44,0-.88,0-1.32.16-3.12,2-4.46,5.3-3.68C262.32,95.08,263,103.81,265,112.65Z" style="fill:#faf2c8"/><path d="M360,38.92h36.48c-.4,2.06-.65,4-1.15,5.87-1.37,5.14-2.9,10.25-4.27,15.4a30.38,30.38,0,0,0-.51,4.07l.51.09c.11-.22.21-.45.33-.67.82-1.63,2.41-2.25,3.8-1.5a2.91,2.91,0,0,1,1,4,5.58,5.58,0,0,1-8.37,1.56,7.49,7.49,0,0,1-2.54-6.21c.2-3.55.76-7.09,1.06-10.64a17.12,17.12,0,0,0-.1-4.41,3.74,3.74,0,0,0-3.78-3.28c-2.42-.11-4.84,0-7.36,0V84.67c2.55-.4,5-.73,7.46-1.24.5-.1.87-.85,1.28-1.31s.82-.92,1.23-1.39l.39.25V92.83l-1.6-1.55c-.55-.53-1-1.38-1.69-1.52-2.28-.5-4.62-.76-7.08-1.14v18.94c3.43,0,6.78.15,10.12,0,2.23-.13,3.78-1.71,5-3.48a25.64,25.64,0,0,0,3.88-11.1,21.36,21.36,0,0,0,.4-4.27c-.29-4.13,3.07-5.52,6.84-4.57-7.92,10.44-4.63,19.69,3.29,28.62H359.3c.7-.77,1.05-1.5,1.53-1.61a2.25,2.25,0,0,0,1.8-2.27,60.49,60.49,0,0,0,.64-7.22q.09-25.81,0-51.64a59.7,59.7,0,0,0-.61-7c-.14-1.12-.42-2.28-2-2.48-.4,0-.71-.75-1.07-1.16Z" style="fill:#faf2c8"/><path d="M434.13,64.29c.11-.23.23-.46.35-.69a2.8,2.8,0,0,1,3.71-1.48,2.87,2.87,0,0,1,1.2,4,5.61,5.61,0,0,1-9.9-.12,11.06,11.06,0,0,1-.81-6.92c.37-2.78.84-5.54,1.26-8.31a12.14,12.14,0,0,0,.12-1.48c.12-3.47-1.13-5.37-3.91-6-3.64-.8-6.5.34-7.58,3.56-2.51,7.53-2.12,13.76,3.83,19,3.14,2.76,6.42,5.36,9.57,8.11,4.84,4.21,8.59,9.12,9.64,15.68a24.76,24.76,0,0,1-.34,10.14c-1.86,7.31-7.6,12.09-15.68,13-4.16.49-8.23.35-12.07-1.64-8.78-4.55-10.09-14.22-8.08-20.31,1.44-4.37,5.77-6.59,9.66-5a5.14,5.14,0,0,1,3.63,4.68c-3.54,1.07-4.15,4-4.2,7a15.84,15.84,0,0,0,1.23,6.38c1.84,4.24,6.72,5,10.12,1.84a14.3,14.3,0,0,0,4.25-9.07c.79-6.69-1-12.55-6-17.22-2.12-2-4.5-3.7-6.74-5.56A87.39,87.39,0,0,1,410.62,68c-5.14-5.22-6-11.59-4.13-18.36,1.82-6.47,6.62-9.93,12.93-11.4s12.69-.93,19,.29c1.31.25,1,1.1.85,1.86-1.18,4.68-2.43,9.35-3.63,14-.67,2.6-1.32,5.21-1.91,7.83a9.34,9.34,0,0,0,0,2Z" style="fill:#faf2c8"/><path d="M454.32,64.36a17.47,17.47,0,0,0-.23-3.25c-1.47-5.51-3.06-11-4.53-16.51-.48-1.79-.73-3.63-1.12-5.63h46.63a36.48,36.48,0,0,1-.6,4c-1.5,5.62-3.12,11.21-4.6,16.84a40.18,40.18,0,0,0-.64,4.55l.51.08c.08-.1.21-.2.24-.32.35-1.31,1.18-2.27,2.53-2.16a3.83,3.83,0,0,1,2.42,1.32c.83,1.06.4,2.3-.33,3.36a5.48,5.48,0,0,1-9.43-.61A10.73,10.73,0,0,1,484,61c0-2.95.58-5.89.85-8.85a34.59,34.59,0,0,0,.22-4.43c-.12-3-1.63-4.41-4.56-4.53-.93,0-1.86,0-3,0V45c0,18.75,0,37.5,0,56.25a53.75,53.75,0,0,0,.71,7.37c.16,1.11.51,2.24,2,2.51.42.07.74.73,1.44,1.48h-19.8c.73-.75,1.07-1.41,1.53-1.51a2.26,2.26,0,0,0,1.82-2.24,50.37,50.37,0,0,0,.61-6.22c.05-19.41,0-38.82,0-58.23,0-.32,0-.65-.06-.95-4.43-1.41-7.53.7-7.37,5.21.12,3.17.85,6.33,1,9.5a25,25,0,0,1-.71,7.28A4.86,4.86,0,0,1,454,69a5.38,5.38,0,0,1-5.22-2.83,2.73,2.73,0,1,1,4.8-2.48,6.28,6.28,0,0,1,.25.73Z" style="fill:#faf2c8"/><path d="M293.48,112.66H273.65c.46-.7.68-1.44,1-1.51,1.58-.33,1.68-1.55,1.58-2.67-.33-3.49-.66-7-1.25-10.45q-3.5-20.46-7.17-40.9c-.78-4.32-1.7-8.62-2.73-12.88-.4-1.64-.81-3.5-3-3.89-.37-.07-.65-.72-1.2-1.39h19.47c-.56.71-.84,1.41-1.25,1.51a1.6,1.6,0,0,0-1.35,1.94c.3,3.38.51,6.79,1.07,10.13,2.35,13.75,4.81,27.48,7.23,41.22,0,.16.08.31.2.78a9.25,9.25,0,0,0,.46-1.14Q291.89,71,297,48.62a36.77,36.77,0,0,0,.7-5.55c.08-1.12.18-2.37-1.49-2.66-.3-.06-.47-.81-.83-1.47h15.12c-.59.66-.92,1.4-1.34,1.46-1.85.25-2.45,1.68-2.88,3.05-1.06,3.34-2.05,6.72-2.85,10.14q-5.85,24.85-11.55,49.74a28.83,28.83,0,0,0-.58,4.74c-.07,1.26-.35,2.7,1.52,3.15C293.12,111.29,293.23,112.06,293.48,112.66Z" style="fill:#faf2c8"/><path d="M332.1,84.55c2-.21,3.92-.34,5.76-.62,1.39-.21,2.88-.4,3.21-2.27.06-.35.78-.58,1.41-1V92.8l-1.56-1.39c-.63-.58-1.18-1.53-1.91-1.7-2.22-.51-4.51-.72-7-1.09,0,1.14,0,1.95,0,2.75.2,5.6.38,11.19.65,16.78.06,1.39.45,2.71,2.2,3,.37.07.61.74,1.14,1.42H316.36c.66-.72,1-1.41,1.42-1.49,1.48-.28,1.81-1.37,2-2.52a61.36,61.36,0,0,0,.58-6.89q.07-25.89,0-51.79a59.08,59.08,0,0,0-.57-6.89c-.15-1.18-.41-2.4-2-2.61-.39,0-.7-.77-1.3-1.48h37c-.38,2-.61,3.91-1.1,5.73-1.38,5.2-2.91,10.36-4.28,15.57a30.06,30.06,0,0,0-.52,4.33,4.78,4.78,0,0,0,.61-.34c.49-1.42,1.37-2.56,3-2.28a3.53,3.53,0,0,1,2.25,1.6c.73,1.42,0,2.77-1,3.87a5.67,5.67,0,0,1-9.11-1.79c-1.17-2.37-1.11-4.9-.83-7.43s.67-4.89,1-7.34a12.18,12.18,0,0,0,.14-1.47c.17-4.69-1.35-6.26-6.07-6.26H332.1Z" style="fill:#faf2c8"/><path d="M251.22,157.25h-3.84l-5.3-16.13v13.45s0,2.24.53,2.24a.4.4,0,0,1,.4.44h-3.72a.38.38,0,0,1,.41-.44c.46,0,.49-2.07.49-2.24V138.09c0-.17,0-2.24-.49-2.24a.38.38,0,0,1-.41-.44h3.87l4.22,12.87V138.09c0-.17-.06-2.24-.52-2.24a.38.38,0,0,1-.41-.44h4.77a.38.38,0,0,1-.4.44c-.47,0-.5,2.07-.5,2.24v16.54c0,.35.06,2.18.5,2.18A.38.38,0,0,1,251.22,157.25Z" style="fill:#faf2c8"/><path d="M270,155.67h-4.75a.31.31,0,0,1,.32-.43c.47,0,.15-2.13.12-2.24l-.32-1.81c-3.26-1.11-4.19.93-4.42,1.89-.09.44-.41,2.16,0,2.16a.31.31,0,0,1,.32.43h-3.73a.5.5,0,0,1,.49-.43c.5,0,1-2.13,1.05-2.24l3.06-13.34c0-.11.49-2.24,0-2.24s-.29-.44-.29-.44h4.86s.15.44-.32.44-.12,2.18-.12,2.24l1.78,10c.7-.5,0-1.34,0-1.34a1.62,1.62,0,0,1,.35,3.2l.26,1.46c0,.05.41,2.24.9,2.24A.46.46,0,0,1,270,155.67Zm-4.89-5.88-1.49-8.41-2,8.88A5.16,5.16,0,0,1,265.11,149.79Z" style="fill:#faf2c8"/><path d="M287.67,155.67H283.8l-4.43-13.15V153s0,2.27.53,2.27a.39.39,0,0,1,.4.43h-3.72a.37.37,0,0,1,.4-.43c.47,0,.5-2.07.5-2.24V139.66c0-.17,0-2.24-.5-2.24a.38.38,0,0,1-.4-.44h3.87l3.35,10v-7.31c0-.17,0-2.24-.5-2.24a.38.38,0,0,1-.4-.44h4.77a.38.38,0,0,1-.41.44c-.46,0-.52,2.1-.52,2.24V153c0,.11.06,2.24.52,2.24A.37.37,0,0,1,287.67,155.67Z" style="fill:#faf2c8"/><path d="M305.92,143.51a1.31,1.31,0,0,1-.81,1,1.38,1.38,0,0,1-1.46-.26c-1.8-1.66,1.28-6.14-1.54-6.2h-.67V153c0,.11.06,2.24.52,2.24a.37.37,0,0,1,.41.43H297.6a.37.37,0,0,1,.4-.43c.47,0,.5-2.07.5-2.24V138.06h-.64c-2.83.06.23,4.54-1.55,6.2a1.37,1.37,0,0,1-1.45.26,1.28,1.28,0,0,1-.82-1,.68.68,0,0,1,.67-.7.71.71,0,0,1,.7.7s0,0,0,.05a.4.4,0,0,0,.21-.46c-.09-1.31-1.46-4.69-1.46-6.12h11.7c0,1.43-1.36,4.81-1.45,6.12a.44.44,0,0,0,.17.46v-.05a.71.71,0,0,1,.7-.7A.68.68,0,0,1,305.92,143.51Z" style="fill:#faf2c8"/><path d="M321.7,155.67h-9.43a.37.37,0,0,1,.4-.43c.47,0,.5-2.07.5-2.24V139.66c0-.17,0-2.24-.5-2.24a.38.38,0,0,1-.4-.44h9.23c0,1.43-1.37,4.81-1.46,6.12a.44.44,0,0,0,.17.46v-.05a.69.69,0,1,1,1.37,0,1.16,1.16,0,0,1-.81,1,1.38,1.38,0,0,1-1.46-.26c-1.8-1.66,1.28-6.14-1.54-6.2h-1.66v10.48c.29,0,2.24-.06,2.24-.52a.37.37,0,0,1,.44-.38v2.91a.37.37,0,0,1-.44-.38c0-.46-2-.52-2.24-.52v4.95h1.57c2.24-.09,2.68-3.73,2.68-4.66,0-1.28,1.34-.93,1.34-.93S320.68,151.48,321.7,155.67Z" style="fill:#faf2c8"/><path d="M337.68,151c0,2.53-1.48,4.8-5.15,4.8a4.16,4.16,0,0,1-4.25-4.31c0-3.55,3.55-3.11,3.55-1.34-1.49,0-1.63,4.28.7,4.28,1.16,0,2.21-1.57,2.21-3.43,0-5.27-6.2-4.86-6.2-9.7,0-3,2-4.22,4.07-4.54A12.8,12.8,0,0,1,337,137c0,1.43-1.37,4.81-1.46,6.12a.4.4,0,0,0,.21.46s0,0,0-.05a.71.71,0,0,1,.7-.7.68.68,0,0,1,.67.7,1.12,1.12,0,0,1-.82,1,1.37,1.37,0,0,1-1.45-.26c-1.81-1.66,1.66-6.2-1.72-6.2-1.34,0-1.69,1.31-1.69,3.2C331.45,144.79,337.68,145.43,337.68,151Z" style="fill:#faf2c8"/><path d="M366.41,150.58s-1,2.47,0,6.67H356.25c0-5.74,7.83-9.67,7.83-16.13,0-2.56-1-4.51-3.23-4.51-3.38,0-3.32,3.58-2,4.77.53.47,1.78,1.14,2.62.09,1.28,1.74-.38,2.65-1.34,2.73a4,4,0,0,1-3.93-5.44,5.13,5.13,0,0,1,4.95-3.35c5,0,5.77,3.52,5.77,5.71,0,6.17-6.76,9.72-8.68,13.94H363c1.77,0,2.06-2.62,2.06-3.55C365.1,150.23,366.41,150.58,366.41,150.58Z" style="fill:#faf2c8"/><path d="M384.23,146.33c0,6-2.42,10.92-5.42,10.92s-5.41-4.89-5.41-10.92,2.41-10.92,5.41-10.92S384.23,140.3,384.23,146.33Zm-2.94,0c0-5.15-1.11-9.35-2.48-9.35s-2.47,4.2-2.47,9.35,1.1,9.34,2.47,9.34S381.29,151.48,381.29,146.33Z" style="fill:#faf2c8"/><path d="M401.81,150.58s-1,2.47,0,6.67H391.65c0-5.74,7.83-9.67,7.83-16.13,0-2.56-1-4.51-3.23-4.51-3.38,0-3.32,3.58-2,4.77.52.47,1.78,1.14,2.62.09,1.28,1.74-.38,2.65-1.34,2.73a4,4,0,0,1-3.93-5.44,5.13,5.13,0,0,1,5-3.35c5,0,5.76,3.52,5.76,5.71,0,6.17-6.75,9.72-8.67,13.94h4.8c1.78,0,2.07-2.62,2.07-3.55C400.5,150.23,401.81,150.58,401.81,150.58Z" style="fill:#faf2c8"/><path d="M420,150.58s-1,2.47,0,6.67H409.81c0-5.74,7.83-9.67,7.83-16.13,0-2.56-1-4.51-3.23-4.51-3.37,0-3.32,3.58-2,4.77.53.47,1.78,1.14,2.62.09,1.29,1.74-.37,2.65-1.33,2.73a4,4,0,0,1-3.94-5.44,5.15,5.15,0,0,1,4.95-3.35c5,0,5.77,3.52,5.77,5.71,0,6.17-6.76,9.72-8.68,13.94h4.81c1.77,0,2.06-2.62,2.06-3.55C418.66,150.23,420,150.58,420,150.58Z" style="fill:#faf2c8"/><path d="M141.76,76.29l-23.34-41.5a4.39,4.39,0,0,0-3.83-2.25l-13.42,0-9.83,0a4.42,4.42,0,0,0-3.84,6.62l21.88,38a4.41,4.41,0,0,1,0,4.43l-2.79,4.79L87.19,119.62A4.42,4.42,0,0,0,91,126.26h10.23l13.51,0a4.42,4.42,0,0,0,3.82-2.19l9.06-15.54h0L136,94.32l5.8-9.92A8.15,8.15,0,0,0,141.76,76.29Z" style="fill:#edc04e"/><polygon points="83.81 32.64 101.54 33.05 135.62 93.93 127.37 108.22 83.81 32.64" style="fill:#587e86"/><polygon points="83.54 125.81 110.61 79.91 119.54 95.3 101.27 126.63 83.54 125.81" style="fill:#757341"/><polygon points="101.27 126.63 119.54 94.75 127.37 108.22 117.07 126.08 101.27 126.63" style="fill:#f6c966"/><path d="M101.54,33.05h12.8a4.71,4.71,0,0,1,4.08,2.37L141,75.07A10.6,10.6,0,0,1,140.74,86l-5.12,8Z" style="fill:#c14d32"/><polygon points="107.25 85.34 110.66 79.35 127.62 108.57 107.25 85.34" style="fill:#6f2b5a;opacity:0.30000000000000004;mix-blend-mode:multiply"/><path d="M102.41,33.23l12.92,0a2.41,2.41,0,0,1,2.09,1.23l23.71,42.15a7.46,7.46,0,0,1,0,7.39L136,92.86,102.41,33.23m-1.24-.73L136,94.32l5.8-9.92a8.15,8.15,0,0,0,0-8.11L117.82,33.72a2.31,2.31,0,0,0-2-1.18l-14.64,0Z" style="fill:#faf2c8"/><path d="M84.94,33.18l15.8,0,34.38,61.09-7.49,12.82-7.47-12.87L111.29,79,84.94,33.18m-1.25-.73,27,46.9,8.87,15.28,8.09,13.94L136,94.32,101.17,32.5l-17.48,0Z" style="fill:#faf2c8"/><path d="M119.53,96.07l7.25,12.5-9.92,17-14.37,0,15.73-27.2,1.31-2.27m0-1.44L117.59,98l-16.36,28.29,16,0,10.34-17.74-8.09-13.94Z" style="fill:#faf2c8"/><path d="M81.25,40l24.7,43,4.71-3.56-27-46.9-1.08.82A5.15,5.15,0,0,0,81.25,40Z" style="fill:#faf2c8"/><path d="M101.23,126.26H83.33l23.25-39.9,4.08-7L106,82.91l-4.08,7L80.59,126.43a2.25,2.25,0,0,0,1.94,3.38h14l13.68,0a7.05,7.05,0,0,0,4.25-1.42l2.82-2.13Z" style="fill:#faf2c8"/><path d="M110.66,80.79l8,13.84-1.73,3-16.15,27.93H84.59L107.2,86.71l3.46-5.92m0-1.44-4.08,7-23.25,39.9h17.9L117.59,98l1.94-3.34-8.87-15.28Z" style="fill:#faf2c8"/><path d="M141.76,76.29,117.83,33.73a2.34,2.34,0,0,0-2-1.19l-14.63,0-17.48,0,27,46.9-4.08,7-23.25,39.9h17.9l16,0,10.34-17.74h0L136,94.32l5.8-9.92A8.15,8.15,0,0,0,141.76,76.29Zm-.64,7.78L135.33,94,127,108.22l-9.64,16.52a1.69,1.69,0,0,1-1.46.84l-14.65,0H86.38A1,1,0,0,1,85.5,124l21.72-37.26,4.08-7,.21-.36L111.3,79,85.58,34.33a.67.67,0,0,1,.52-1.06l15.08,0,14,0a2.61,2.61,0,0,1,2.26,1.32l23.64,42A7.44,7.44,0,0,1,141.12,84.07Z" style="fill:#faf2c8"/></g></svg>