<svg xmlns="http://www.w3.org/2000/svg" viewBox="0 0 419.4 129.2"><g style="isolation:isolate"><path d="M79.25,29.33a12.91,12.91,0,0,0,0-2.77c-1.48-5.62-3.09-11.21-4.54-16.84-.66-2.54-1.06-5.14-1.62-7.9.79-.07,1.26-.14,1.73-.14,8.92,0,17.85-.16,26.77.08a46.33,46.33,0,0,1,11.36,1.65c11,3.11,17.08,11.13,17.39,22.51.19,7.14.06,14.29.09,21.44,0,8.91.1,17.82.09,26.72,0,6.68-1.67,12.85-6.05,18.07a17.64,17.64,0,0,1-14,6.64c-7.71,0-15.43,0-23.14,0h-2c.73-.77,1.08-1.47,1.55-1.56C88.15,97,88.48,96,88.62,95a46.62,46.62,0,0,0,.67-6.54q.08-32.83,0-65.66a47.47,47.47,0,0,0-.72-6.7,2.48,2.48,0,0,0-2.06-2.45c-.39-.07-.67-.76-1.24-1.47h19.61c-.58.7-.87,1.41-1.29,1.5-1.54.31-1.86,1.45-2,2.66a58.35,58.35,0,0,0-.56,6.73c0,23.09,0,46.19-.06,69.28,0,1.45.45,1.88,1.84,2,5.35.23,9.18-2.3,12.06-6.5a20.85,20.85,0,0,0,3.86-11.57c.11-10.39,0-20.79,0-31.18,0-6.43.13-12.87-.07-19.3a44.47,44.47,0,0,0-1.32-9.25,10.34,10.34,0,0,0-8-7.75,32.05,32.05,0,0,0-6.67-1c-4.68-.16-9.36-.09-14-.11-3.57,0-5.34,1.53-5.2,5.08.15,3.78.87,7.53,1,11.31a15.12,15.12,0,0,1-.87,6.11,5.43,5.43,0,0,1-9.34,1.29c-.86-1.06-1.37-2.31-.64-3.5a3.75,3.75,0,0,1,2.29-1.54c1.43-.22,2.31.78,2.75,2.12C78.68,28.67,78.82,28.78,79.25,29.33Z"/><path d="M187,83.47H138.8l-.25-.36c.4-.41.76-1.08,1.23-1.18a2.23,2.23,0,0,0,1.8-2.25,51,51,0,0,0,.62-6.39q.08-26.72,0-53.44a51,51,0,0,0-.63-6.39c-.14-1.06-.52-2-1.86-2.18-.43-.07-.76-.74-1.46-1.47h37c-.73,8.67-5.09,16.51-5.86,25.09l.54.16c.19-.34.37-.7.59-1A2.75,2.75,0,0,1,174,33a2.83,2.83,0,0,1,1.39,3.49c-1.14,3.42-6,4.56-8.76,2-2.22-2.07-2.62-4.79-2.41-7.59.24-3.17.74-6.32,1.11-9.48a15.69,15.69,0,0,0,.1-1.81c0-4-1.48-5.59-5.54-5.61h-5.84V55.48c2.53-.38,4.92-.65,7.26-1.15.58-.13,1-1,1.5-1.49L164,51.59l.39.24V63.62c-.7-.63-1.4-.95-1.5-1.4a2.22,2.22,0,0,0-2.1-1.79c-2.15-.36-4.33-.62-6.69-.94V79.16h1.73c4.9,0,9.81-.18,14.71,0a7.79,7.79,0,0,0,7-3.79c2.72-3.94,3.55-8.46,4-13.1,0-.44,0-.88,0-1.32.15-3.12,2-4.46,5.29-3.68C184.25,65.91,184.92,74.64,187,83.47Z"/><path d="M281.88,9.75h36.48c-.39,2.05-.64,4-1.14,5.86-1.38,5.15-2.9,10.26-4.27,15.4a29.16,29.16,0,0,0-.51,4.08l.51.09c.11-.23.21-.45.32-.67.83-1.63,2.42-2.25,3.81-1.5a2.92,2.92,0,0,1,1,4,5.58,5.58,0,0,1-8.37,1.56,7.43,7.43,0,0,1-2.54-6.21c.19-3.55.76-7.09,1.06-10.64a18.05,18.05,0,0,0-.1-4.41,3.74,3.74,0,0,0-3.79-3.28c-2.41-.11-4.83,0-7.36,0V55.5c2.56-.41,5-.74,7.47-1.24.5-.1.86-.85,1.28-1.31L307,51.56l.38.25V63.66l-1.59-1.55c-.56-.53-1.05-1.38-1.69-1.52-2.29-.51-4.62-.77-7.09-1.14V78.39c3.43,0,6.79.15,10.13,0,2.23-.13,3.77-1.71,5-3.49A25.6,25.6,0,0,0,316,63.75a21.18,21.18,0,0,0,.39-4.26c-.29-4.13,3.08-5.52,6.85-4.57-7.92,10.44-4.63,19.69,3.29,28.62H281.23c.71-.77,1.06-1.51,1.54-1.61a2.25,2.25,0,0,0,1.79-2.27,60.51,60.51,0,0,0,.65-7.22q.07-25.81,0-51.64a57.65,57.65,0,0,0-.61-7c-.14-1.13-.41-2.28-2-2.48-.4,0-.72-.75-1.07-1.16Z"/><path d="M356.06,35.12c.12-.23.23-.46.36-.69a2.81,2.81,0,0,1,3.71-1.49,2.9,2.9,0,0,1,1.2,4,5.61,5.61,0,0,1-9.9-.12,11.1,11.1,0,0,1-.82-6.93c.38-2.77.85-5.53,1.26-8.3a12.32,12.32,0,0,0,.13-1.48c.12-3.47-1.13-5.37-3.92-6-3.63-.81-6.5.34-7.57,3.56-2.51,7.53-2.13,13.76,3.82,19,3.14,2.76,6.42,5.36,9.58,8.11,4.84,4.21,8.59,9.12,9.64,15.68a24.76,24.76,0,0,1-.34,10.14c-1.86,7.31-7.61,12.08-15.68,13-4.17.49-8.24.35-12.08-1.64-8.77-4.55-10.08-14.23-8.07-20.31,1.44-4.37,5.76-6.59,9.66-5.05a5.15,5.15,0,0,1,3.63,4.69c-3.54,1.07-4.15,4-4.2,7a16,16,0,0,0,1.22,6.37c1.84,4.25,6.73,5.06,10.12,1.85a14.27,14.27,0,0,0,4.25-9.07c.79-6.69-1-12.55-6-17.22-2.12-2-4.5-3.7-6.74-5.57s-4.7-3.66-6.77-5.76c-5.14-5.22-6-11.59-4.13-18.36C330.25,14,335,10.56,341.36,9.09s12.69-.92,19,.3c1.32.25,1.05,1.1.86,1.86-1.19,4.68-2.43,9.35-3.63,14-.67,2.61-1.32,5.22-1.91,7.84a8.72,8.72,0,0,0,0,2Z"/><path d="M376.26,35.19a16.65,16.65,0,0,0-.24-3.25c-1.46-5.52-3-11-4.52-16.52-.48-1.78-.73-3.62-1.12-5.63H417a36.3,36.3,0,0,1-.61,4c-1.49,5.62-3.11,11.21-4.59,16.84a36.1,36.1,0,0,0-.64,4.55l.5.08c.08-.11.21-.2.24-.32.35-1.31,1.19-2.28,2.54-2.16a3.82,3.82,0,0,1,2.41,1.31c.84,1.07.41,2.31-.33,3.37a5.48,5.48,0,0,1-9.43-.61A11,11,0,0,1,406,31.8c.05-2.95.58-5.9.86-8.85a32.93,32.93,0,0,0,.21-4.44c-.12-3-1.62-4.4-4.55-4.52-.93,0-1.86,0-3,0v1.85q0,28.13,0,56.25a53.92,53.92,0,0,0,.72,7.37c.15,1.11.51,2.24,2,2.5.42.08.73.73,1.44,1.48h-19.8c.72-.74,1.06-1.4,1.53-1.5a2.24,2.24,0,0,0,1.81-2.24,52.4,52.4,0,0,0,.62-6.22q.08-29.11,0-58.23c0-.33,0-.65-.05-1-4.43-1.4-7.53.71-7.37,5.21.11,3.18.85,6.33,1,9.51a25.41,25.41,0,0,1-.71,7.28,4.87,4.87,0,0,1-4.71,3.54A5.41,5.41,0,0,1,370.7,37a2.73,2.73,0,1,1,4.81-2.48c.1.23.16.49.24.73Z"/><path d="M215.42,83.49H195.58c.47-.7.68-1.44,1-1.51,1.58-.34,1.69-1.55,1.58-2.67-.32-3.49-.65-7-1.24-10.45q-3.5-20.47-7.17-40.9-1.17-6.48-2.74-12.89c-.39-1.63-.8-3.49-3-3.88-.38-.07-.65-.73-1.21-1.4h19.48c-.56.71-.84,1.42-1.25,1.51a1.62,1.62,0,0,0-1.36,1.95c.3,3.38.51,6.78,1.08,10.12,2.34,13.76,4.81,27.49,7.23,41.23,0,.16.08.31.19.78a10.44,10.44,0,0,0,.47-1.14Q213.83,41.85,219,19.45a38.1,38.1,0,0,0,.7-5.55c.08-1.12.17-2.37-1.49-2.67-.3-.05-.48-.8-.83-1.46h15.12c-.59.66-.92,1.4-1.35,1.46-1.85.25-2.44,1.68-2.87,3-1.07,3.34-2.06,6.72-2.86,10.14q-5.83,24.86-11.55,49.74a29.94,29.94,0,0,0-.57,4.74c-.08,1.26-.36,2.7,1.51,3.15C215.05,82.12,215.16,82.89,215.42,83.49Z"/><path d="M254,55.37c2-.21,3.91-.33,5.75-.61,1.4-.22,2.88-.4,3.22-2.28.06-.34.78-.57,1.41-1V63.63c-.7-.63-1.14-1-1.56-1.39-.64-.59-1.18-1.53-1.91-1.7-2.22-.51-4.51-.73-7-1.09,0,1.14,0,1.94,0,2.75.2,5.59.37,11.19.64,16.78.07,1.39.45,2.71,2.21,3,.36.07.61.74,1.13,1.42H238.3c.65-.72,1-1.41,1.42-1.49,1.48-.29,1.81-1.38,1.94-2.53a56.83,56.83,0,0,0,.58-6.88q.07-25.9,0-51.79a57,57,0,0,0-.57-6.89c-.14-1.19-.4-2.4-2-2.61-.39,0-.69-.77-1.29-1.49h37c-.38,2-.62,3.91-1.1,5.74-1.39,5.2-2.91,10.36-4.29,15.56a33.4,33.4,0,0,0-.52,4.33c.53-.28.6-.3.62-.34.49-1.42,1.37-2.56,3-2.28a3.52,3.52,0,0,1,2.24,1.61c.73,1.42.05,2.77-1,3.86a5.66,5.66,0,0,1-9.11-1.78C264,34.1,264,31.57,264.31,29s.67-4.89,1-7.34a14.53,14.53,0,0,0,.14-1.48c.17-4.69-1.35-6.25-6.07-6.25H254Z"/><path d="M173.16,128.07h-3.84L164,111.94V125.4s0,2.24.52,2.24a.39.39,0,0,1,.41.43h-3.73a.38.38,0,0,1,.41-.43c.47,0,.5-2.07.5-2.24V108.92c0-.18,0-2.24-.5-2.24a.38.38,0,0,1-.41-.44h3.88l4.22,12.87V108.92c0-.18-.06-2.24-.53-2.24a.38.38,0,0,1-.4-.44h4.77a.38.38,0,0,1-.41.44c-.46,0-.49,2.06-.49,2.24v16.53c0,.35.06,2.19.49,2.19A.37.37,0,0,1,173.16,128.07Z" style="fill:#1d1d1b"/><path d="M191.94,126.5h-4.75a.31.31,0,0,1,.32-.43c.47,0,.15-2.13.12-2.25l-.32-1.8c-3.26-1.11-4.2.93-4.43,1.89-.09.44-.41,2.16,0,2.16a.3.3,0,0,1,.32.43h-3.72a.49.49,0,0,1,.49-.43c.5,0,1-2.13,1.05-2.25l3.06-13.33c0-.12.49-2.24,0-2.24s-.3-.44-.3-.44h4.87s.14.44-.32.44-.12,2.18-.12,2.24l1.78,10c.69-.49,0-1.33,0-1.33a1.62,1.62,0,0,1,.35,3.2l.26,1.45c0,.06.41,2.25.9,2.25A.46.46,0,0,1,191.94,126.5Zm-4.89-5.88-1.49-8.41-2,8.88A5.19,5.19,0,0,1,187.05,120.62Z" style="fill:#1d1d1b"/><path d="M209.61,126.5h-3.88l-4.42-13.16v10.45s0,2.28.52,2.28a.39.39,0,0,1,.41.43h-3.73a.38.38,0,0,1,.41-.43c.47,0,.5-2.07.5-2.25V110.49c0-.17,0-2.24-.5-2.24a.38.38,0,0,1-.41-.44h3.88l3.34,10v-7.31c0-.17,0-2.24-.49-2.24a.38.38,0,0,1-.41-.44h4.78a.38.38,0,0,1-.41.44c-.47,0-.53,2.09-.53,2.24v13.33c0,.12.06,2.25.53,2.25A.38.38,0,0,1,209.61,126.5Z" style="fill:#1d1d1b"/><path d="M227.86,114.33a1.3,1.3,0,0,1-.82,1,1.37,1.37,0,0,1-1.45-.26c-1.81-1.66,1.28-6.14-1.55-6.2h-.67v14.93c0,.12.06,2.25.53,2.25a.38.38,0,0,1,.41.43h-4.78a.37.37,0,0,1,.41-.43c.46,0,.49-2.07.49-2.25V108.89h-.64c-2.82.06.24,4.54-1.54,6.2a1.38,1.38,0,0,1-1.46.26,1.29,1.29,0,0,1-.81-1,.68.68,0,0,1,.67-.7.71.71,0,0,1,.7.7s0,0,0,.06a.41.41,0,0,0,.2-.46c-.08-1.32-1.45-4.69-1.45-6.12h11.7c0,1.43-1.37,4.8-1.45,6.12a.43.43,0,0,0,.17.46v-.06a.71.71,0,0,1,.7-.7A.68.68,0,0,1,227.86,114.33Z" style="fill:#1d1d1b"/><path d="M243.64,126.5H234.2a.37.37,0,0,1,.41-.43c.47,0,.5-2.07.5-2.25V110.49c0-.17,0-2.24-.5-2.24a.38.38,0,0,1-.41-.44h9.23c0,1.43-1.37,4.8-1.45,6.12a.43.43,0,0,0,.17.46v-.06a.69.69,0,1,1,1.37,0,1.15,1.15,0,0,1-.82,1,1.36,1.36,0,0,1-1.45-.26c-1.81-1.66,1.28-6.14-1.55-6.2h-1.65v10.48c.29,0,2.24-.06,2.24-.52a.36.36,0,0,1,.43-.38v2.91a.36.36,0,0,1-.43-.38c0-.47-1.95-.52-2.24-.52v5h1.57c2.24-.09,2.68-3.73,2.68-4.66,0-1.28,1.34-.93,1.34-.93S242.62,122.31,243.64,126.5Z" style="fill:#1d1d1b"/><path d="M259.62,121.79c0,2.53-1.49,4.8-5.16,4.8a4.16,4.16,0,0,1-4.25-4.31c0-3.55,3.55-3.11,3.55-1.34-1.48,0-1.63,4.28.7,4.28,1.17,0,2.22-1.57,2.22-3.43,0-5.27-6.2-4.87-6.2-9.7,0-3,2-4.22,4.07-4.54a12.84,12.84,0,0,1,4.43.26c0,1.43-1.37,4.8-1.46,6.12a.41.41,0,0,0,.2.46s0,0,0-.06a.72.72,0,0,1,.7-.7.68.68,0,0,1,.67.7,1.13,1.13,0,0,1-.81,1,1.38,1.38,0,0,1-1.46-.26c-1.8-1.66,1.66-6.2-1.72-6.2-1.33,0-1.68,1.31-1.68,3.2C253.39,115.61,259.62,116.25,259.62,121.79Z" style="fill:#1d1d1b"/><path d="M288.35,121.41s-1,2.47,0,6.66H278.19c0-5.73,7.83-9.66,7.83-16.13,0-2.56-1-4.51-3.23-4.51-3.38,0-3.32,3.58-2,4.78.52.46,1.78,1.13,2.62.08,1.28,1.75-.38,2.65-1.34,2.74a4,4,0,0,1-3.93-5.44,5.13,5.13,0,0,1,4.95-3.35c5,0,5.76,3.52,5.76,5.7,0,6.18-6.75,9.73-8.67,14H285c1.78,0,2.07-2.62,2.07-3.55C287,121.06,288.35,121.41,288.35,121.41Z" style="fill:#1d1d1b"/><path d="M306.16,117.16c0,6-2.41,10.91-5.41,10.91s-5.42-4.89-5.42-10.91,2.42-10.92,5.42-10.92S306.16,111.13,306.16,117.16Zm-2.94,0c0-5.16-1.1-9.35-2.47-9.35s-2.48,4.19-2.48,9.35,1.11,9.34,2.48,9.34S303.22,122.31,303.22,117.16Z" style="fill:#1d1d1b"/><path d="M323.75,121.41s-1,2.47,0,6.66H313.59c0-5.73,7.83-9.66,7.83-16.13,0-2.56-1-4.51-3.23-4.51-3.38,0-3.32,3.58-2,4.78.52.46,1.77,1.13,2.62.08,1.28,1.75-.38,2.65-1.34,2.74a4,4,0,0,1-3.93-5.44,5.13,5.13,0,0,1,5-3.35c5,0,5.76,3.52,5.76,5.7,0,6.18-6.75,9.73-8.67,14h4.8c1.78,0,2.07-2.62,2.07-3.55C322.44,121.06,323.75,121.41,323.75,121.41Z" style="fill:#1d1d1b"/><path d="M341.91,121.41s-1,2.47,0,6.66H331.75c0-5.73,7.83-9.66,7.83-16.13,0-2.56-1-4.51-3.23-4.51-3.38,0-3.32,3.58-2,4.78.52.46,1.78,1.13,2.62.08,1.28,1.75-.38,2.65-1.34,2.74a4,4,0,0,1-3.93-5.44,5.13,5.13,0,0,1,4.95-3.35c5,0,5.76,3.52,5.76,5.7,0,6.18-6.75,9.73-8.67,14h4.8c1.78,0,2.07-2.62,2.07-3.55C340.6,121.06,341.91,121.41,341.91,121.41Z" style="fill:#1d1d1b"/><path d="M63.7,47.11,40.36,5.61a4.45,4.45,0,0,0-3.84-2.25l-13.42,0-9.82,0A4.41,4.41,0,0,0,9.44,9.91L31.32,48a4.44,4.44,0,0,1,0,4.43l-2.8,4.78L9.13,90.45a4.42,4.42,0,0,0,3.81,6.64H23.17l13.5,0a4.43,4.43,0,0,0,3.83-2.19L49.56,79.4h0l8.33-14.26,5.79-9.91A8.2,8.2,0,0,0,63.7,47.11Z" style="fill:#edc04e"/><polygon points="5.75 3.47 23.48 3.88 57.55 64.76 49.31 79.05 5.75 3.47" style="fill:#587e86"/><polygon points="5.47 96.64 32.55 50.74 41.48 66.13 23.2 97.46 5.47 96.64" style="fill:#757341"/><polygon points="23.2 97.46 41.48 65.58 49.31 79.05 39 96.91 23.2 97.46" style="fill:#f6c966"/><path d="M23.48,3.88h12.8a4.69,4.69,0,0,1,4.07,2.37L62.93,45.9a10.61,10.61,0,0,1-.25,10.9l-5.13,8Z" style="fill:#c14d32"/><polygon points="29.19 56.16 32.59 50.18 49.56 79.4 29.19 56.16" style="fill:#6f2b5a;opacity:0.30000000000000004;mix-blend-mode:multiply"/><path d="M24.35,4.06l12.92,0a2.4,2.4,0,0,1,2.09,1.23L63.07,47.47a7.46,7.46,0,0,1,0,7.39L57.9,63.68,24.35,4.06M23.1,3.33,57.89,65.14l5.79-9.91a8.2,8.2,0,0,0,0-8.12L39.76,4.55a2.31,2.31,0,0,0-2-1.18l-14.64,0Z"/><path d="M6.88,4l15.8,0L57.05,65.14,49.56,78,42.09,65.09,33.22,49.82,6.88,4M5.62,3.28l27,46.9,8.87,15.28,8.1,13.94,8.33-14.26L23.1,3.33,5.62,3.28Z"/><path d="M41.47,66.9l7.25,12.5-9.92,17-14.38,0,15.73-27.2,1.32-2.27m0-1.44L39.53,68.8,23.17,97.09l16,0L49.56,79.4l-8.1-13.94Z"/><path d="M3.18,10.77l24.71,43,4.7-3.56-27-46.9L4.54,4.1A5.15,5.15,0,0,0,3.18,10.77Z"/><path d="M23.17,97.09H5.27L28.51,57.17l4.08-7-4.7,3.56-4.08,7L2.53,97.26a2.25,2.25,0,0,0,1.94,3.38h14l13.69,0a7,7,0,0,0,4.25-1.42l2.82-2.13Z"/><path d="M32.59,51.62l8,13.84-1.73,3L22.75,96.36H6.53L29.14,57.54l3.45-5.92m0-1.44-4.08,7L5.27,97.08h17.9L39.53,68.8l1.93-3.34L32.59,50.18Z"/><path d="M63.7,47.11,39.76,4.56a2.31,2.31,0,0,0-2-1.19l-14.63,0L5.62,3.28l27,46.9-4.08,7L5.27,97.08h17.9l16,0L49.56,79.4h0l8.33-14.26,5.79-9.91A8.2,8.2,0,0,0,63.7,47.11Zm-.64,7.79-5.79,9.91L48.94,79.05,39.3,95.57a1.66,1.66,0,0,1-1.46.83l-14.66,0H8.31a1,1,0,0,1-.87-1.53L29.15,57.57l4.08-7,.21-.37-.2-.36L7.51,5.15A.67.67,0,0,1,8,4.1l15.08,0,14,0A2.61,2.61,0,0,1,39.42,5.5l23.65,42A7.47,7.47,0,0,1,63.06,54.9Z"/></g></svg>