<svg xmlns="http://www.w3.org/2000/svg" viewBox="0 0 416.04 127.36"><path d="M77.59,28.42a12.8,12.8,0,0,0,0-2.76C76.08,20,74.47,14.44,73,8.81,72.36,6.28,72,3.68,71.4.92c.79-.07,1.26-.14,1.73-.14C82.05.77,91,.62,99.9.85A46.33,46.33,0,0,1,111.26,2.5c11,3.12,17.08,11.14,17.39,22.52.19,7.14.06,14.29.09,21.44,0,8.9.1,17.81.09,26.72,0,6.67-1.67,12.85-6.05,18.06a17.63,17.63,0,0,1-14,6.64c-7.71,0-15.43,0-23.14,0h-2c.73-.77,1.07-1.48,1.54-1.56,1.34-.24,1.67-1.22,1.81-2.24a46.76,46.76,0,0,0,.67-6.55q.08-32.82,0-65.65a47.61,47.61,0,0,0-.72-6.71,2.47,2.47,0,0,0-2.06-2.44c-.39-.07-.67-.76-1.24-1.48h19.61c-.58.7-.87,1.42-1.29,1.5-1.54.31-1.86,1.46-2,2.67a56.23,56.23,0,0,0-.57,6.72c0,23.1,0,46.19-.06,69.29,0,1.45.45,1.88,1.85,1.94,5.34.24,9.17-2.29,12-6.5a20.82,20.82,0,0,0,3.86-11.57c.11-10.39,0-20.78,0-31.17,0-6.44.13-12.87-.07-19.3a44.47,44.47,0,0,0-1.32-9.25,10.34,10.34,0,0,0-8-7.76,32,32,0,0,0-6.67-1c-4.68-.16-9.36-.09-14.05-.11-3.57,0-5.34,1.53-5.2,5.07.15,3.78.87,7.54,1,11.32a15.17,15.17,0,0,1-.87,6.11,5.43,5.43,0,0,1-9.34,1.28c-.86-1.05-1.37-2.31-.64-3.49a3.71,3.71,0,0,1,2.29-1.54c1.43-.22,2.31.77,2.75,2.11C77,27.76,77.16,27.87,77.59,28.42Z"/><path d="M185.3,82.57H137.14l-.25-.37c.4-.41.76-1.07,1.23-1.17a2.24,2.24,0,0,0,1.8-2.25,51.17,51.17,0,0,0,.62-6.39q.08-26.72,0-53.45a50.85,50.85,0,0,0-.63-6.38c-.14-1.06-.52-2-1.86-2.19-.43-.06-.76-.74-1.46-1.47h37c-.73,8.68-5.09,16.51-5.86,25.1l.54.16c.19-.35.37-.71.59-1a2.75,2.75,0,0,1,3.46-1.07,2.84,2.84,0,0,1,1.4,3.49c-1.15,3.41-6,4.55-8.77,2-2.22-2.06-2.62-4.78-2.41-7.58.25-3.17.74-6.32,1.11-9.49a13.63,13.63,0,0,0,.1-1.81c0-4-1.48-5.58-5.54-5.6-1.92,0-3.84,0-5.84,0V54.58c2.53-.38,4.92-.66,7.26-1.16.58-.12,1-1,1.5-1.49l1.18-1.25.4.24v11.8c-.71-.64-1.41-1-1.51-1.4a2.21,2.21,0,0,0-2.1-1.79c-2.15-.37-4.33-.62-6.69-1V78.25c.58,0,1.15,0,1.73,0,4.9,0,9.81-.17,14.71,0a7.79,7.79,0,0,0,7-3.8c2.72-3.93,3.55-8.46,4-13.09,0-.44,0-.88.05-1.32.16-3.12,2-4.47,5.29-3.68C182.6,65,183.26,73.74,185.3,82.57Z"/><path d="M280.22,8.84H316.7c-.39,2.06-.64,4-1.14,5.87-1.38,5.15-2.9,10.25-4.27,15.4a29,29,0,0,0-.51,4.08l.51.08c.11-.22.21-.45.32-.67a2.77,2.77,0,0,1,3.81-1.5,2.92,2.92,0,0,1,1,4,5.57,5.57,0,0,1-8.37,1.56,7.44,7.44,0,0,1-2.54-6.2c.2-3.56.76-7.09,1.06-10.64a18.14,18.14,0,0,0-.1-4.42,3.75,3.75,0,0,0-3.79-3.28c-2.41-.11-4.83,0-7.36,0V54.6c2.56-.41,5-.74,7.47-1.24.5-.1.86-.85,1.28-1.31l1.23-1.39.38.25V62.76c-.72-.7-1.15-1.14-1.59-1.56s-1.05-1.38-1.69-1.52c-2.29-.5-4.62-.76-7.09-1.13V77.49c3.43,0,6.79.14,10.13,0,2.23-.13,3.77-1.71,5-3.49a25.6,25.6,0,0,0,3.88-11.1,20.6,20.6,0,0,0,.39-4.26c-.29-4.13,3.08-5.52,6.85-4.57-7.92,10.44-4.63,19.69,3.29,28.61H279.57c.71-.77,1.06-1.5,1.54-1.6a2.26,2.26,0,0,0,1.79-2.28,60.16,60.16,0,0,0,.65-7.21q.07-25.82,0-51.64a60,60,0,0,0-.6-7.06c-.15-1.12-.42-2.28-2-2.47-.4,0-.72-.76-1.07-1.16Z"/><path d="M354.4,34.22c.12-.23.23-.47.36-.69A2.8,2.8,0,0,1,358.47,32a2.88,2.88,0,0,1,1.2,4,5.6,5.6,0,0,1-9.9-.12A11.13,11.13,0,0,1,349,29c.38-2.77.85-5.54,1.26-8.31a12,12,0,0,0,.13-1.47c.12-3.48-1.13-5.38-3.92-6-3.63-.81-6.5.34-7.57,3.56-2.51,7.52-2.13,13.76,3.82,19,3.14,2.76,6.43,5.36,9.58,8.1,4.84,4.22,8.59,9.13,9.64,15.68a24.75,24.75,0,0,1-.34,10.14c-1.86,7.32-7.61,12.09-15.68,13-4.17.5-8.24.36-12.08-1.63-8.77-4.56-10.08-14.23-8.07-20.32,1.44-4.37,5.76-6.59,9.66-5A5.15,5.15,0,0,1,339,60.41c-3.54,1.06-4.15,4-4.2,7A15.79,15.79,0,0,0,336,73.73c1.83,4.25,6.72,5,10.11,1.85a14.31,14.31,0,0,0,4.26-9.08c.78-6.69-1-12.55-6-17.22-2.11-2-4.5-3.7-6.74-5.56A86.92,86.92,0,0,1,330.9,38c-5.14-5.21-6-11.58-4.13-18.35,1.82-6.47,6.61-9.94,12.93-11.41s12.69-.93,19,.29c1.32.26,1.05,1.11.86,1.87-1.19,4.68-2.43,9.34-3.63,14-.67,2.6-1.32,5.21-1.91,7.83a9.34,9.34,0,0,0,0,2Z"/><path d="M374.6,34.29a16.59,16.59,0,0,0-.24-3.25c-1.46-5.52-3.05-11-4.52-16.52-.48-1.78-.73-3.62-1.12-5.63h46.63a33.89,33.89,0,0,1-.61,4c-1.49,5.63-3.11,11.22-4.59,16.85a36.21,36.21,0,0,0-.64,4.54l.5.09c.08-.11.21-.2.24-.32.35-1.32,1.19-2.28,2.54-2.17a3.78,3.78,0,0,1,2.41,1.32c.84,1.06.41,2.3-.33,3.37a5.48,5.48,0,0,1-9.43-.62,11,11,0,0,1-1.15-5c0-2.95.58-5.89.86-8.84a33,33,0,0,0,.21-4.44c-.12-3-1.62-4.41-4.55-4.52-.93,0-1.86,0-3,0v1.85q0,28.13,0,56.25a53.78,53.78,0,0,0,.72,7.36c.16,1.12.51,2.25,2,2.51.42.08.73.73,1.44,1.48h-19.8c.73-.74,1.07-1.4,1.53-1.5a2.24,2.24,0,0,0,1.81-2.24,52.36,52.36,0,0,0,.62-6.23q.08-29.12,0-58.23c0-.32,0-.64-.05-.95-4.43-1.41-7.53.7-7.37,5.21.11,3.18.85,6.33,1,9.5a25.45,25.45,0,0,1-.71,7.29,4.85,4.85,0,0,1-4.7,3.53,5.39,5.39,0,0,1-5.22-2.82,2.73,2.73,0,1,1,4.8-2.48c.1.23.16.48.24.72Z"/><path d="M213.76,82.59H193.93c.46-.71.67-1.44,1-1.52,1.59-.33,1.69-1.55,1.58-2.66-.32-3.5-.65-7-1.24-10.46q-3.5-20.46-7.17-40.9-1.17-6.47-2.74-12.88c-.39-1.63-.8-3.49-3-3.89-.38-.06-.65-.72-1.21-1.39h19.48c-.56.71-.84,1.42-1.25,1.51A1.63,1.63,0,0,0,198,12.35c.3,3.38.51,6.78,1.08,10.12,2.34,13.75,4.81,27.48,7.23,41.22,0,.16.08.32.19.79a10.41,10.41,0,0,0,.47-1.15q5.17-22.38,10.31-44.79A38.1,38.1,0,0,0,218,13c.08-1.11.17-2.36-1.49-2.66-.3-.05-.48-.81-.83-1.47H230.8c-.59.67-.92,1.4-1.35,1.46-1.85.25-2.44,1.68-2.87,3-1.07,3.35-2.05,6.73-2.86,10.14q-5.83,24.85-11.55,49.75A30,30,0,0,0,211.6,78c-.08,1.27-.36,2.71,1.51,3.16C213.39,81.21,213.5,82,213.76,82.59Z"/><path d="M252.38,54.47c2.05-.21,3.91-.34,5.76-.62,1.39-.21,2.87-.4,3.21-2.27.06-.35.78-.57,1.41-1V62.72c-.7-.62-1.14-1-1.56-1.39-.64-.58-1.18-1.53-1.91-1.69-2.22-.52-4.51-.73-7-1.09,0,1.13,0,1.94,0,2.75.2,5.59.37,11.19.64,16.78.07,1.38.45,2.7,2.21,3,.36.07.61.74,1.13,1.42H236.64c.65-.72,1-1.41,1.42-1.5,1.48-.28,1.81-1.37,1.94-2.52a57,57,0,0,0,.58-6.89q.07-25.89,0-51.78A57.14,57.14,0,0,0,240,13c-.14-1.18-.4-2.39-2-2.61-.39,0-.69-.76-1.29-1.48h37c-.38,2-.62,3.91-1.1,5.74-1.39,5.2-2.91,10.36-4.29,15.56a33.4,33.4,0,0,0-.52,4.33c.53-.29.61-.3.62-.34.49-1.42,1.37-2.56,3-2.28a3.52,3.52,0,0,1,2.24,1.6c.73,1.43.05,2.78-1,3.87a5.67,5.67,0,0,1-9.11-1.78c-1.17-2.38-1.11-4.91-.84-7.43s.67-4.9,1-7.34a14.81,14.81,0,0,0,.14-1.48c.17-4.69-1.35-6.25-6.07-6.26h-5.35Z"/><path d="M171.5,127.17h-3.84L162.36,111v13.45s0,2.24.52,2.24a.4.4,0,0,1,.41.44h-3.73a.38.38,0,0,1,.41-.44c.47,0,.5-2.06.5-2.24V108c0-.17,0-2.24-.5-2.24a.38.38,0,0,1-.41-.43h3.88l4.22,12.86V108c0-.17-.06-2.24-.53-2.24a.37.37,0,0,1-.4-.43h4.77a.37.37,0,0,1-.41.43c-.46,0-.49,2.07-.49,2.24v16.54c0,.35.06,2.18.49,2.18A.38.38,0,0,1,171.5,127.17Z" style="fill:#1d1d1b"/><path d="M190.28,125.6h-4.75s-.14-.44.32-.44.15-2.12.12-2.24l-.32-1.8c-3.26-1.11-4.19.93-4.43,1.89-.09.43-.41,2.15,0,2.15s.32.44.32.44h-3.72a.49.49,0,0,1,.49-.44c.5,0,1-2.12,1.05-2.24l3.06-13.33c0-.12.49-2.25,0-2.25s-.3-.43-.3-.43H187a.31.31,0,0,1-.32.43c-.47,0-.12,2.19-.12,2.25l1.78,10c.69-.49,0-1.34,0-1.34a1.62,1.62,0,0,1,.35,3.2l.26,1.46c0,.06.41,2.24.9,2.24A.47.47,0,0,1,190.28,125.6Zm-4.89-5.88-1.49-8.42-2,8.88A5.18,5.18,0,0,1,185.39,119.72Z" style="fill:#1d1d1b"/><path d="M208,125.6h-3.88l-4.42-13.16v10.45s0,2.27.52,2.27a.4.4,0,0,1,.41.44h-3.73a.38.38,0,0,1,.41-.44c.47,0,.5-2.07.5-2.24V109.59c0-.18,0-2.25-.5-2.25a.38.38,0,0,1-.41-.43h3.88l3.34,10v-7.3c0-.18,0-2.25-.49-2.25a.37.37,0,0,1-.41-.43H208a.38.38,0,0,1-.41.43c-.47,0-.53,2.1-.53,2.25v13.33c0,.12.06,2.24.53,2.24A.38.38,0,0,1,208,125.6Z" style="fill:#1d1d1b"/><path d="M226.2,113.43a1.32,1.32,0,0,1-.82,1,1.41,1.41,0,0,1-1.45-.26c-1.81-1.66,1.28-6.15-1.55-6.2h-.66v14.93c0,.12.05,2.24.52,2.24a.38.38,0,0,1,.41.44h-4.78a.38.38,0,0,1,.41-.44c.47,0,.49-2.07.49-2.24V108h-.64c-2.82.05.24,4.54-1.54,6.2a1.42,1.42,0,0,1-1.46.26,1.3,1.3,0,0,1-.81-1,.68.68,0,0,1,.67-.7.71.71,0,0,1,.7.7s0,0,0,.06a.43.43,0,0,0,.2-.47c-.08-1.31-1.45-4.69-1.45-6.11h11.7c0,1.42-1.37,4.8-1.45,6.11a.45.45,0,0,0,.17.47v-.06a.71.71,0,0,1,.7-.7A.68.68,0,0,1,226.2,113.43Z" style="fill:#1d1d1b"/><path d="M242,125.6h-9.44a.38.38,0,0,1,.41-.44c.47,0,.5-2.07.5-2.24V109.59c0-.18,0-2.25-.5-2.25a.37.37,0,0,1-.41-.43h9.23c0,1.42-1.37,4.8-1.45,6.11a.45.45,0,0,0,.17.47v-.06a.69.69,0,1,1,1.37,0,1.16,1.16,0,0,1-.82,1,1.4,1.4,0,0,1-1.45-.26c-1.81-1.66,1.28-6.15-1.54-6.2h-1.66v10.48c.29,0,2.24-.06,2.24-.53a.36.36,0,0,1,.43-.38v2.91a.36.36,0,0,1-.43-.37c0-.47-1.95-.53-2.24-.53v5H238c2.24-.09,2.68-3.73,2.68-4.66,0-1.28,1.34-.93,1.34-.93S241,121.41,242,125.6Z" style="fill:#1d1d1b"/><path d="M258,120.88c0,2.53-1.49,4.81-5.16,4.81a4.16,4.16,0,0,1-4.25-4.31c0-3.55,3.55-3.12,3.55-1.34-1.48,0-1.63,4.28.7,4.28,1.17,0,2.22-1.57,2.22-3.44,0-5.27-6.2-4.86-6.2-9.69,0-3,2-4.22,4.07-4.54a12.84,12.84,0,0,1,4.43.26c0,1.42-1.37,4.8-1.46,6.11a.43.43,0,0,0,.2.47.07.07,0,0,1,0-.06.71.71,0,0,1,.69-.7.68.68,0,0,1,.67.7,1.14,1.14,0,0,1-.81,1,1.43,1.43,0,0,1-1.46-.26c-1.8-1.66,1.66-6.2-1.71-6.2-1.34,0-1.69,1.3-1.69,3.2C251.73,114.71,258,115.35,258,120.88Z" style="fill:#1d1d1b"/><path d="M286.69,120.5s-1,2.48,0,6.67H276.53c0-5.73,7.83-9.67,7.83-16.13,0-2.56-1-4.51-3.23-4.51-3.38,0-3.32,3.58-2,4.77.52.47,1.78,1.14,2.62.09,1.28,1.75-.38,2.65-1.34,2.74a4,4,0,0,1-3.93-5.45,5.13,5.13,0,0,1,4.95-3.34c5,0,5.76,3.52,5.76,5.7,0,6.17-6.75,9.73-8.67,13.95h4.8c1.78,0,2.07-2.62,2.07-3.55C285.38,120.15,286.69,120.5,286.69,120.5Z" style="fill:#1d1d1b"/><path d="M304.5,116.25c0,6-2.41,10.92-5.41,10.92s-5.42-4.89-5.42-10.92,2.42-10.91,5.42-10.91S304.5,110.23,304.5,116.25Zm-2.94,0c0-5.15-1.1-9.34-2.47-9.34s-2.48,4.19-2.48,9.34,1.11,9.35,2.48,9.35S301.56,121.41,301.56,116.25Z" style="fill:#1d1d1b"/><path d="M322.09,120.5s-1,2.48,0,6.67H311.93c0-5.73,7.83-9.67,7.83-16.13,0-2.56-1-4.51-3.23-4.51-3.38,0-3.32,3.58-2,4.77.52.47,1.77,1.14,2.62.09,1.28,1.75-.38,2.65-1.34,2.74a4,4,0,0,1-3.93-5.45,5.13,5.13,0,0,1,4.95-3.34c5,0,5.76,3.52,5.76,5.7,0,6.17-6.75,9.73-8.67,13.95h4.8c1.78,0,2.07-2.62,2.07-3.55C320.78,120.15,322.09,120.5,322.09,120.5Z" style="fill:#1d1d1b"/><path d="M340.25,120.5s-1,2.48,0,6.67H330.09c0-5.73,7.83-9.67,7.83-16.13,0-2.56-1-4.51-3.23-4.51-3.38,0-3.32,3.58-2,4.77.53.47,1.78,1.14,2.62.09,1.28,1.75-.38,2.65-1.34,2.74a4,4,0,0,1-3.93-5.45,5.13,5.13,0,0,1,5-3.34c5,0,5.77,3.52,5.77,5.7,0,6.17-6.76,9.73-8.68,13.95h4.8c1.78,0,2.07-2.62,2.07-3.55C338.94,120.15,340.25,120.5,340.25,120.5Z" style="fill:#1d1d1b"/><path d="M62,46.21,37.72,3a1,1,0,0,0-.87-.52l-15.41,0L5.7,2.38a1,1,0,0,0-.87,1.5L30.65,48.77a1,1,0,0,1,0,1l-3.79,6.49L4.48,94.67a1,1,0,0,0,.87,1.51H21.51l15.47,0a1,1,0,0,0,.87-.5l10-17.23h0l8.33-14.26L62,54.32A8.15,8.15,0,0,0,62,46.21Z" style="fill:#fff"/><path d="M22.69,3.15l12.92,0A2.41,2.41,0,0,1,37.7,4.41L61.41,46.57a7.46,7.46,0,0,1,0,7.39l-5.16,8.82L22.69,3.15m-1.25-.73L56.23,64.24,62,54.32a8.15,8.15,0,0,0,0-8.11L38.1,3.65a2.32,2.32,0,0,0-2-1.19l-14.64,0Z"/><path d="M5.22,3.11l15.8,0L55.39,64.23,47.9,77.06,40.43,64.19,31.56,48.91,5.22,3.11M4,2.38l27,46.9L39.8,64.55l8.1,14,8.33-14.26L21.44,2.42,4,2.38Z"/><path d="M39.81,66l7.25,12.5-9.92,17-14.38,0,15.73-27.2L39.81,66m0-1.45L37.87,67.9,21.51,96.19l16.05,0L47.9,78.5l-8.1-14Z"/><path d="M1.52,9.87l24.71,43,4.71-3.55L4,2.38,2.88,3.2A5.15,5.15,0,0,0,1.52,9.87Z"/><path d="M21.51,96.19H3.61L26.85,56.27l4.09-7-4.71,3.55-4.08,7L.87,96.36a2.25,2.25,0,0,0,1.94,3.38h14l13.69,0a7,7,0,0,0,4.25-1.42l2.82-2.13Z"/><path d="M30.93,50.72l8,13.83-1.73,3L21.09,95.46H4.87L27.48,56.64l3.45-5.92m0-1.44-4.09,7L3.61,96.18h17.9L37.87,67.9l1.93-3.35L30.94,49.28Z"/><path d="M62,46.21,38.11,3.66a2.34,2.34,0,0,0-2-1.2l-14.63,0L4,2.38l27,46.9-4.09,7L3.61,96.18h17.9l16.05,0L47.9,78.5h0l8.33-14.26L62,54.32A8.15,8.15,0,0,0,62,46.21ZM61.4,54l-5.79,9.9L47.28,78.15,37.64,94.66a1.69,1.69,0,0,1-1.46.84l-14.66,0H6.65a1,1,0,0,1-.87-1.52L27.49,56.67l4.08-7,.22-.36L31.58,49,5.85,4.25a.68.68,0,0,1,.53-1.06l15.08,0,14,0A2.61,2.61,0,0,1,37.77,4.6l23.64,42A7.46,7.46,0,0,1,61.4,54Z"/></svg>