<svg xmlns="http://www.w3.org/2000/svg" viewBox="0 0 430.47 145.27"><g style="isolation:isolate"><g id="Camada_2" data-name="Camada 2"><path d="M83.84,34.69a12.93,12.93,0,0,0,0-2.76c-1.49-5.62-3.09-11.22-4.55-16.85-.65-2.53-1-5.13-1.61-7.89.79-.07,1.26-.14,1.73-.14,8.92,0,17.85-.16,26.76.07a46.41,46.41,0,0,1,11.37,1.65c11,3.12,17.07,11.14,17.38,22.52.2,7.14.07,14.29.09,21.44,0,8.91.11,17.81.09,26.72,0,6.67-1.67,12.85-6.05,18.07a17.64,17.64,0,0,1-14,6.63c-7.71,0-15.42,0-23.13,0h-2c.73-.77,1.08-1.47,1.54-1.56,1.35-.24,1.67-1.22,1.82-2.24a49.79,49.79,0,0,0,.67-6.55Q94,61,93.89,28.16a48.85,48.85,0,0,0-.73-6.7A2.47,2.47,0,0,0,91.1,19c-.38-.07-.66-.76-1.23-1.47h19.61c-.58.69-.87,1.41-1.3,1.49-1.54.31-1.86,1.46-2,2.67a60.68,60.68,0,0,0-.57,6.73c0,23.09,0,46.18-.06,69.28,0,1.45.45,1.88,1.85,1.94,5.34.24,9.18-2.29,12-6.49a20.7,20.7,0,0,0,3.86-11.58c.11-10.39,0-20.78,0-31.17,0-6.43.12-12.87-.08-19.3a43.8,43.8,0,0,0-1.31-9.25,10.34,10.34,0,0,0-8-7.75,31.22,31.22,0,0,0-6.67-1c-4.67-.16-9.36-.09-14-.11-3.57,0-5.34,1.53-5.2,5.08.15,3.78.87,7.53,1,11.31a14.81,14.81,0,0,1-.87,6.11,5.42,5.42,0,0,1-9.33,1.28c-.87-1.05-1.37-2.31-.64-3.49a3.68,3.68,0,0,1,2.29-1.54c1.42-.22,2.3.78,2.74,2.11A6.16,6.16,0,0,0,83.84,34.69Z" style="fill:#faf2c8"/><path d="M191.56,88.84H143.4l-.25-.37c.4-.4.75-1.07,1.22-1.17a2.23,2.23,0,0,0,1.81-2.25,55,55,0,0,0,.62-6.39q.07-26.71,0-53.44a53,53,0,0,0-.63-6.39c-.14-1.06-.52-2-1.86-2.19-.43-.06-.77-.74-1.46-1.46h37c-.73,8.67-5.09,16.51-5.87,25.09l.54.16c.2-.34.38-.7.6-1a2.74,2.74,0,0,1,3.45-1.08,2.83,2.83,0,0,1,1.4,3.49c-1.14,3.42-6,4.56-8.76,2-2.22-2.07-2.63-4.79-2.41-7.59.24-3.17.74-6.32,1.11-9.48.07-.6.09-1.21.1-1.82,0-4-1.48-5.58-5.55-5.6-1.92,0-3.84,0-5.84,0V60.85c2.54-.38,4.92-.65,7.27-1.15.58-.13,1-1,1.49-1.49L168.6,57l.39.25V69c-.71-.63-1.41-.95-1.5-1.4a2.23,2.23,0,0,0-2.1-1.79c-2.16-.37-4.33-.62-6.69-1V84.53h1.73c4.9,0,9.81-.18,14.7,0a7.8,7.8,0,0,0,7-3.79c2.72-3.94,3.55-8.47,4-13.1,0-.44,0-.88,0-1.32.16-3.12,2-4.47,5.3-3.68C188.85,71.28,189.52,80,191.56,88.84Z" style="fill:#faf2c8"/><path d="M286.48,15.12H323c-.39,2.05-.65,4-1.15,5.86-1.37,5.15-2.89,10.26-4.26,15.4a30.53,30.53,0,0,0-.52,4.08l.52.09c.1-.23.21-.46.32-.68.83-1.62,2.41-2.24,3.81-1.49a2.92,2.92,0,0,1,1,4A5.58,5.58,0,0,1,314.34,44a7.46,7.46,0,0,1-2.54-6.2c.2-3.56.77-7.09,1.07-10.64a17.66,17.66,0,0,0-.11-4.42A3.74,3.74,0,0,0,309,19.41c-2.41-.1-4.83,0-7.36,0V60.87c2.55-.41,5-.74,7.47-1.24.49-.1.86-.85,1.28-1.31l1.22-1.39.39.25V69l-1.6-1.56c-.55-.53-1-1.37-1.68-1.52-2.29-.5-4.63-.76-7.09-1.13V83.76c3.43,0,6.79.14,10.13-.05,2.23-.13,3.77-1.71,5-3.49a25.73,25.73,0,0,0,3.88-11.1,21.24,21.24,0,0,0,.39-4.26c-.29-4.13,3.08-5.52,6.85-4.57-7.93,10.44-4.64,19.69,3.29,28.62H285.83c.71-.78,1.05-1.51,1.53-1.61a2.25,2.25,0,0,0,1.8-2.27,62.66,62.66,0,0,0,.65-7.22q.07-25.81,0-51.64a57.65,57.65,0,0,0-.61-7c-.14-1.13-.41-2.29-2-2.48-.4-.05-.72-.76-1.08-1.16Z" style="fill:#faf2c8"/><path d="M360.66,40.49l.35-.69a2.81,2.81,0,0,1,3.71-1.49,2.87,2.87,0,0,1,1.2,4,5.6,5.6,0,0,1-9.89-.11,11,11,0,0,1-.82-6.93c.37-2.77.84-5.53,1.26-8.3a14.78,14.78,0,0,0,.13-1.48c.11-3.48-1.13-5.38-3.92-6-3.64-.81-6.5.34-7.58,3.56-2.5,7.53-2.12,13.76,3.83,19,3.14,2.76,6.42,5.36,9.57,8.1,4.84,4.22,8.59,9.13,9.65,15.68A25,25,0,0,1,367.8,76c-1.86,7.31-7.6,12.08-15.68,13-4.16.49-8.23.35-12.07-1.64C331.27,82.79,330,73.12,332,67c1.45-4.36,5.77-6.58,9.66-5a5.16,5.16,0,0,1,3.64,4.69c-3.54,1.06-4.16,4-4.2,6.95A15.78,15.78,0,0,0,342.29,80c1.84,4.25,6.72,5.06,10.12,1.85a14.32,14.32,0,0,0,4.25-9.07c.79-6.7-1-12.56-6-17.23-2.12-2-4.5-3.7-6.74-5.56s-4.7-3.66-6.78-5.76C332,39,331.12,32.64,333,25.87c1.82-6.47,6.62-9.94,12.93-11.41s12.69-.92,19,.3c1.31.25,1,1.1.85,1.86-1.18,4.68-2.43,9.35-3.63,14-.66,2.61-1.31,5.21-1.91,7.84a9.33,9.33,0,0,0,0,2Z" style="fill:#faf2c8"/><path d="M380.86,40.56a17.4,17.4,0,0,0-.24-3.25c-1.46-5.52-3.05-11-4.53-16.52-.47-1.78-.73-3.62-1.12-5.63H421.6a33.89,33.89,0,0,1-.6,4c-1.5,5.63-3.11,11.22-4.59,16.85a38,38,0,0,0-.65,4.55l.51.08c.08-.11.21-.2.24-.32.35-1.31,1.18-2.28,2.53-2.17a3.87,3.87,0,0,1,2.42,1.32c.84,1.06.4,2.31-.33,3.37a5.48,5.48,0,0,1-9.43-.62,10.71,10.71,0,0,1-1.15-5c.05-3,.58-5.9.85-8.85a32.93,32.93,0,0,0,.22-4.44c-.12-3-1.62-4.4-4.55-4.52-.93,0-1.87,0-3,0V21.2c0,18.75,0,37.5,0,56.25a55.22,55.22,0,0,0,.71,7.36c.16,1.12.52,2.25,2,2.51.42.08.74.73,1.44,1.48H388.41c.72-.74,1.06-1.4,1.52-1.5a2.26,2.26,0,0,0,1.82-2.24,50.37,50.37,0,0,0,.61-6.22q.08-29.12,0-58.23c0-.33,0-.65,0-1-4.44-1.4-7.54.7-7.37,5.21.11,3.18.85,6.33.95,9.51a25.41,25.41,0,0,1-.7,7.28,4.88,4.88,0,0,1-4.71,3.54,5.41,5.41,0,0,1-5.22-2.83,2.81,2.81,0,0,1,1-4,2.78,2.78,0,0,1,3.81,1.53,5.7,5.7,0,0,1,.25.73Z" style="fill:#faf2c8"/><path d="M220,88.86H200.18c.46-.7.68-1.44,1-1.51,1.58-.34,1.68-1.56,1.58-2.67-.32-3.49-.66-7-1.25-10.45q-3.5-20.48-7.17-40.9c-.77-4.32-1.69-8.62-2.73-12.89-.4-1.63-.81-3.49-3-3.89-.38-.06-.65-.72-1.21-1.39h19.48c-.57.71-.84,1.42-1.26,1.51a1.62,1.62,0,0,0-1.35,1.95c.3,3.38.51,6.78,1.08,10.12,2.34,13.75,4.8,27.49,7.22,41.22,0,.16.08.32.2.79a9.93,9.93,0,0,0,.46-1.14q5.17-22.39,10.32-44.8a36.79,36.79,0,0,0,.69-5.54c.09-1.12.18-2.37-1.49-2.67-.3-.05-.47-.81-.83-1.46h15.12c-.58.66-.92,1.4-1.34,1.45-1.85.25-2.44,1.68-2.88,3.05-1.06,3.35-2.05,6.73-2.85,10.14q-5.85,24.86-11.55,49.75a30,30,0,0,0-.57,4.73c-.08,1.27-.36,2.71,1.51,3.16C219.65,87.48,219.76,88.26,220,88.86Z" style="fill:#faf2c8"/><path d="M258.63,60.74c2.05-.21,3.92-.33,5.76-.61,1.4-.22,2.88-.4,3.21-2.28.07-.34.79-.57,1.42-1V69l-1.56-1.38c-.64-.59-1.19-1.53-1.91-1.7-2.23-.51-4.52-.73-7-1.09,0,1.13,0,1.94,0,2.75.2,5.59.37,11.19.64,16.78.07,1.38.45,2.71,2.2,3.05.37.07.62.74,1.14,1.42H242.89c.66-.72,1-1.41,1.42-1.5,1.48-.28,1.81-1.37,1.95-2.52a61.16,61.16,0,0,0,.58-6.89q.07-25.89,0-51.78a56.81,56.81,0,0,0-.57-6.89c-.15-1.19-.41-2.4-2-2.61-.39-.06-.69-.77-1.3-1.49h37c-.38,2-.62,3.91-1.11,5.74-1.38,5.2-2.91,10.36-4.28,15.56a30.24,30.24,0,0,0-.52,4.33c.52-.28.6-.3.61-.34.5-1.42,1.37-2.56,3-2.28a3.52,3.52,0,0,1,2.24,1.61c.73,1.42,0,2.77-1,3.86a5.66,5.66,0,0,1-9.11-1.78,13.15,13.15,0,0,1-.83-7.43c.27-2.46.67-4.9,1-7.34.06-.49.12-1,.14-1.48.16-4.69-1.35-6.25-6.07-6.26h-5.36Z" style="fill:#faf2c8"/><path d="M177.76,133.44h-3.85l-5.29-16.13v13.45s0,2.25.52,2.25a.39.39,0,0,1,.41.43h-3.73a.37.37,0,0,1,.41-.43c.46,0,.49-2.07.49-2.25V114.29c0-.18,0-2.25-.49-2.25a.37.37,0,0,1-.41-.43h3.87l4.22,12.87V114.29c0-.18,0-2.25-.52-2.25a.37.37,0,0,1-.41-.43h4.78a.37.37,0,0,1-.41.43c-.47,0-.5,2.07-.5,2.25v16.53c0,.35.06,2.19.5,2.19A.37.37,0,0,1,177.76,133.44Z" style="fill:#faf2c8"/><path d="M196.53,131.87h-4.74s-.15-.44.32-.44.14-2.12.11-2.24l-.32-1.8c-3.26-1.11-4.19.93-4.42,1.89-.09.44-.41,2.15,0,2.15s.32.44.32.44h-3.73a.51.51,0,0,1,.5-.44c.49,0,1-2.12,1.05-2.24l3-13.33c0-.12.5-2.24,0-2.24s-.29-.44-.29-.44h4.86s.15.44-.32.44-.11,2.18-.11,2.24l1.77,10c.7-.49,0-1.34,0-1.34a1.63,1.63,0,0,1,.35,3.21l.26,1.45c0,.06.41,2.24.91,2.24A.46.46,0,0,1,196.53,131.87ZM191.64,126l-1.48-8.41-2,8.88A5.1,5.1,0,0,1,191.64,126Z" style="fill:#faf2c8"/><path d="M214.2,131.87h-3.87l-4.42-13.16v10.45s0,2.27.52,2.27a.4.4,0,0,1,.41.44h-3.73a.38.38,0,0,1,.41-.44c.46,0,.49-2.06.49-2.24V115.86c0-.18,0-2.24-.49-2.24a.38.38,0,0,1-.41-.44H207l3.35,10v-7.31c0-.18,0-2.24-.49-2.24a.38.38,0,0,1-.41-.44h4.77a.38.38,0,0,1-.4.44c-.47,0-.53,2.09-.53,2.24v13.33c0,.12.06,2.24.53,2.24A.38.38,0,0,1,214.2,131.87Z" style="fill:#faf2c8"/><path d="M232.45,119.7a1.29,1.29,0,0,1-.81,1,1.41,1.41,0,0,1-1.46-.26c-1.8-1.66,1.28-6.15-1.54-6.2H228v14.93c0,.12.06,2.24.53,2.24a.38.38,0,0,1,.4.44h-4.77a.38.38,0,0,1,.41-.44c.46,0,.49-2.06.49-2.24V114.26h-.64c-2.82,0,.23,4.54-1.54,6.2a1.41,1.41,0,0,1-1.46.26,1.28,1.28,0,0,1-.81-1,.68.68,0,0,1,.67-.7.71.71,0,0,1,.69.7.07.07,0,0,1,0,.06.42.42,0,0,0,.2-.47c-.09-1.31-1.46-4.68-1.46-6.11h11.71c0,1.43-1.37,4.8-1.46,6.11a.44.44,0,0,0,.18.47v-.06a.71.71,0,0,1,.69-.7A.68.68,0,0,1,232.45,119.7Z" style="fill:#faf2c8"/><path d="M248.23,131.87H238.8a.38.38,0,0,1,.41-.44c.46,0,.49-2.06.49-2.24V115.86c0-.18,0-2.24-.49-2.24a.38.38,0,0,1-.41-.44H248c0,1.43-1.37,4.8-1.46,6.11a.44.44,0,0,0,.18.47v-.06a.69.69,0,1,1,1.37,0,1.15,1.15,0,0,1-.82,1,1.4,1.4,0,0,1-1.46-.26c-1.8-1.66,1.29-6.15-1.54-6.2h-1.66v10.48c.29,0,2.24-.06,2.24-.53s.44-.37.44-.37v2.91a.37.37,0,0,1-.44-.38c0-.47-1.95-.53-2.24-.53v4.95h1.57c2.25-.08,2.68-3.72,2.68-4.65,0-1.29,1.34-.94,1.34-.94S247.21,127.68,248.23,131.87Z" style="fill:#faf2c8"/><path d="M264.21,127.15c0,2.54-1.48,4.81-5.15,4.81a4.16,4.16,0,0,1-4.25-4.31c0-3.55,3.55-3.12,3.55-1.34-1.48,0-1.63,4.28.7,4.28,1.16,0,2.21-1.57,2.21-3.44,0-5.26-6.2-4.86-6.2-9.69,0-3,2-4.22,4.08-4.54a12.76,12.76,0,0,1,4.42.26c0,1.43-1.37,4.8-1.45,6.11a.42.42,0,0,0,.2.47s0,0,0-.06a.71.71,0,0,1,.7-.7.68.68,0,0,1,.67.7,1.13,1.13,0,0,1-.81,1,1.41,1.41,0,0,1-1.46-.26c-1.81-1.66,1.66-6.2-1.72-6.2-1.34,0-1.69,1.31-1.69,3.2C258,121,264.21,121.62,264.21,127.15Z" style="fill:#faf2c8"/><path d="M293,126.78s-1,2.47,0,6.66H282.78c0-5.73,7.84-9.66,7.84-16.13,0-2.56-1-4.51-3.24-4.51-3.37,0-3.31,3.58-2,4.78.52.46,1.77,1.13,2.62.08,1.28,1.75-.38,2.65-1.34,2.74a4,4,0,0,1-3.93-5.44,5.12,5.12,0,0,1,4.95-3.35c5,0,5.76,3.52,5.76,5.7,0,6.18-6.75,9.73-8.68,13.95h4.81c1.77,0,2.07-2.62,2.07-3.55C291.64,126.43,293,126.78,293,126.78Z" style="fill:#faf2c8"/><path d="M310.76,122.52c0,6-2.42,10.92-5.42,10.92s-5.41-4.89-5.41-10.92,2.42-10.91,5.41-10.91S310.76,116.5,310.76,122.52Zm-2.94,0c0-5.15-1.11-9.34-2.48-9.34s-2.47,4.19-2.47,9.34,1.11,9.35,2.47,9.35S307.82,127.68,307.82,122.52Z" style="fill:#faf2c8"/><path d="M328.34,126.78s-1,2.47,0,6.66H318.18c0-5.73,7.83-9.66,7.83-16.13,0-2.56-1-4.51-3.23-4.51-3.38,0-3.32,3.58-2,4.78.53.46,1.78,1.13,2.62.08,1.28,1.75-.37,2.65-1.34,2.74a4,4,0,0,1-3.93-5.44,5.12,5.12,0,0,1,4.95-3.35c5,0,5.77,3.52,5.77,5.7,0,6.18-6.76,9.73-8.68,13.95H325c1.77,0,2.06-2.62,2.06-3.55C327,126.43,328.34,126.78,328.34,126.78Z" style="fill:#faf2c8"/><path d="M346.51,126.78s-1,2.47,0,6.66H336.35c0-5.73,7.83-9.66,7.83-16.13,0-2.56-1-4.51-3.23-4.51-3.38,0-3.32,3.58-2,4.78.52.46,1.77,1.13,2.62.08,1.28,1.75-.38,2.65-1.34,2.74a4,4,0,0,1-3.93-5.44,5.12,5.12,0,0,1,4.95-3.35c5,0,5.76,3.52,5.76,5.7,0,6.18-6.75,9.73-8.67,13.95h4.8c1.78,0,2.07-2.62,2.07-3.55C345.2,126.43,346.51,126.78,346.51,126.78Z" style="fill:#faf2c8"/><path d="M68.3,52.48,45,11a4.43,4.43,0,0,0-3.83-2.25L27.7,8.7l-9.83,0A4.41,4.41,0,0,0,14,15.28L35.92,53.33a4.41,4.41,0,0,1,0,4.43l-2.79,4.78L13.72,95.82a4.41,4.41,0,0,0,3.82,6.63H27.76l13.51,0a4.41,4.41,0,0,0,3.82-2.18l9.07-15.54h0l8.33-14.26,5.79-9.91A8.2,8.2,0,0,0,68.3,52.48Z" style="fill:#edc04e"/><polygon points="10.35 8.84 28.07 9.25 62.15 70.13 53.91 84.42 10.35 8.84" style="fill:#587e86"/><polygon points="10.07 102 37.14 56.11 46.07 71.5 27.8 102.83 10.07 102" style="fill:#757341"/><polygon points="27.8 102.83 46.07 70.95 53.91 84.42 43.6 102.28 27.8 102.83" style="fill:#f6c966"/><path d="M28.07,9.25H40.88A4.67,4.67,0,0,1,45,11.62L67.52,51.27a10.59,10.59,0,0,1-.25,10.9l-5.12,8Z" style="fill:#c14d32"/><polygon points="33.79 61.53 37.19 55.55 54.16 84.77 33.79 61.53" style="fill:#6f2b5a;opacity:0.30000000000000004;mix-blend-mode:multiply"/><path d="M28.94,9.42l12.93,0A2.39,2.39,0,0,1,44,10.68L67.66,52.84a7.44,7.44,0,0,1,0,7.39L62.5,69.05,28.94,9.42M27.7,8.7,62.49,70.51l5.79-9.91a8.2,8.2,0,0,0,0-8.12L44.36,9.92a2.34,2.34,0,0,0-2-1.19L27.7,8.7Z" style="fill:#faf2c8"/><path d="M11.48,9.38l15.79,0L61.65,70.5,54.16,83.33,46.69,70.46,37.82,55.19,11.48,9.38m-1.26-.73,27,46.9,8.87,15.27,8.1,14,8.33-14.26L27.7,8.7l-17.48,0Z" style="fill:#faf2c8"/><path d="M46.06,72.27l7.26,12.5-9.92,17-14.38,0L44.75,74.53l1.31-2.26m0-1.45-1.94,3.35L27.76,102.46l16.05,0L54.16,84.77l-8.1-14Z" style="fill:#faf2c8"/><path d="M7.78,16.14l24.71,43,4.7-3.55-27-46.9-1.08.82A5.15,5.15,0,0,0,7.78,16.14Z" style="fill:#faf2c8"/><path d="M27.76,102.46H9.86L33.11,62.54l4.08-7-4.7,3.55-4.08,7L7.13,102.63A2.24,2.24,0,0,0,9.07,106h14l13.69,0A6.92,6.92,0,0,0,41,104.63l2.82-2.13Z" style="fill:#faf2c8"/><path d="M37.19,57l8,13.83-1.73,3L27.35,101.73H11.12L33.74,62.91,37.19,57m0-1.44-4.08,7L9.86,102.45h17.9L44.12,74.17l1.94-3.35L37.19,55.55Z" style="fill:#faf2c8"/><path d="M68.3,52.48,44.36,9.93a2.35,2.35,0,0,0-2-1.2L27.7,8.7l-17.48,0,27,46.9-4.08,7L9.86,102.45h17.9l16.05,0L54.16,84.77h0l8.33-14.26,5.79-9.91A8.2,8.2,0,0,0,68.3,52.48Zm-.65,7.79-5.79,9.9L53.54,84.42l-9.65,16.52a1.67,1.67,0,0,1-1.46.83l-14.65,0H12.91A1,1,0,0,1,12,100.2L33.75,62.94l4.08-7,.21-.36-.21-.36L12.11,10.52a.67.67,0,0,1,.53-1l15.07,0,14,0A2.61,2.61,0,0,1,44,10.87l23.64,42A7.44,7.44,0,0,1,67.65,60.27Z" style="fill:#faf2c8"/></g></g></svg>